<?xml version="1.0" standalone="no"?>
<!DOCTYPE svg PUBLIC "-//W3C//DTD SVG 20010904//EN"
 "http://www.w3.org/TR/2001/REC-SVG-20010904/DTD/svg10.dtd">
<svg version="1.0" xmlns="http://www.w3.org/2000/svg"
 width="657.000000pt" height="657.000000pt" viewBox="0 0 657.000000 657.000000"
 preserveAspectRatio="xMidYMid meet">
<metadata>
Created by potrace 1.14, written by Peter Selinger 2001-2017
</metadata>
<g transform="translate(0.000000,657.000000) scale(0.100000,-0.100000)"
fill="#000000" stroke="none">
<path d="M2977 6423 c-4 -6 -18 -8 -32 -5 -14 2 -36 -3 -49 -12 -23 -14 -26
-14 -40 0 -14 13 -16 13 -16 1 0 -8 -7 -17 -15 -21 -8 -3 -15 -1 -15 3 0 10
-26 9 -36 -1 -3 -4 -13 -4 -22 -1 -11 5 -13 3 -7 -8 7 -11 5 -11 -10 1 -15 12
-17 12 -10 1 6 -11 4 -13 -8 -8 -9 3 -19 2 -23 -4 -3 -6 -12 -8 -20 -5 -8 3
-14 2 -14 -2 0 -8 -14 -11 -70 -15 -16 -1 -30 -6 -30 -11 0 -4 -9 -6 -20 -3
-11 3 -20 1 -20 -4 0 -6 -8 -5 -19 1 -13 6 -22 7 -26 0 -3 -5 -13 -6 -22 -3
-10 4 -14 2 -10 -4 3 -5 -7 -10 -23 -11 -51 -3 -60 -5 -60 -13 0 -5 -7 -5 -17
-2 -10 4 -14 2 -10 -4 4 -6 0 -14 -9 -17 -9 -4 -13 -2 -8 5 3 6 -5 3 -19 -6
-15 -9 -31 -14 -37 -10 -5 3 -10 3 -10 -2 0 -4 -11 -13 -24 -19 -21 -10 -24
-9 -19 5 3 12 1 11 -11 -3 -9 -11 -16 -16 -16 -11 0 5 -5 4 -12 -3 -7 -7 -20
-12 -29 -12 -10 0 -19 -5 -21 -11 -3 -10 -39 -19 -90 -22 -16 -1 -28 -6 -28
-10 0 -13 -27 -37 -34 -30 -3 4 -6 1 -6 -6 0 -7 -5 -9 -11 -6 -6 4 -9 0 -7
-11 2 -11 -2 -18 -9 -17 -7 2 -13 -2 -13 -8 0 -8 -5 -7 -16 1 -8 8 -14 9 -13
4 3 -19 -1 -34 -12 -34 -5 0 -7 6 -3 13 4 7 3 9 -2 4 -5 -5 -9 -14 -9 -20 0
-5 -6 -12 -14 -15 -9 -3 -11 0 -6 8 6 9 4 11 -4 6 -7 -5 -10 -14 -7 -21 3 -9
-2 -12 -16 -10 -11 3 -18 2 -14 -2 8 -8 -24 -43 -39 -43 -7 0 -15 -7 -19 -15
-3 -8 -11 -14 -18 -13 -7 2 -12 -5 -12 -14 1 -13 -2 -15 -15 -9 -17 10 -45
-11 -33 -25 4 -4 -1 -4 -10 -1 -9 3 -22 -1 -30 -11 -11 -13 -11 -15 2 -8 9 4
8 2 -2 -7 -10 -8 -14 -17 -10 -21 4 -4 0 -6 -8 -4 -9 2 -14 -3 -12 -11 3 -12
0 -12 -12 -2 -12 10 -14 8 -12 -13 2 -14 0 -25 -3 -24 -13 2 -41 -14 -36 -22
3 -4 -3 -7 -12 -6 -9 0 -18 -6 -20 -14 -4 -13 -3 -13 7 0 10 13 11 13 7 0 -2
-8 -11 -14 -20 -12 -8 1 -19 -3 -23 -9 -5 -8 -3 -9 7 -4 8 5 5 -1 -5 -13 -21
-24 -31 -29 -20 -9 4 6 -2 3 -14 -7 -17 -15 -19 -22 -11 -33 10 -11 8 -12 -5
-7 -12 5 -19 0 -23 -15 -3 -11 -9 -18 -14 -16 -4 3 -6 -4 -4 -15 2 -11 0 -18
-6 -15 -5 4 -9 1 -9 -5 0 -6 -4 -8 -10 -5 -5 3 -10 2 -10 -4 0 -5 6 -12 13
-15 6 -4 2 -4 -10 -2 -23 4 -69 -35 -56 -47 3 -4 -2 -7 -13 -7 -16 0 -17 -2
-4 -10 13 -8 12 -10 -2 -10 -10 0 -18 -7 -18 -15 0 -8 -5 -15 -11 -15 -8 0 -7
-5 1 -16 11 -12 11 -15 -1 -12 -8 2 -13 -2 -12 -9 2 -8 -4 -10 -15 -6 -14 6
-15 4 -5 -8 8 -9 9 -20 3 -29 -6 -8 -10 -10 -10 -5 0 6 -5 2 -11 -8 -5 -9 -7
-22 -4 -27 4 -6 1 -9 -6 -8 -7 2 -15 -8 -19 -22 -4 -14 -12 -24 -19 -22 -7 1
-10 -2 -6 -8 3 -5 0 -10 -7 -10 -9 0 -9 -3 2 -10 11 -7 11 -10 2 -10 -7 0 -10
-5 -6 -12 4 -7 3 -8 -4 -4 -8 4 -16 -3 -22 -19 -6 -15 -15 -23 -21 -19 -8 4
-9 0 -4 -15 5 -16 2 -21 -12 -21 -14 0 -15 -2 -5 -9 11 -7 11 -9 -1 -14 -9 -3
-17 -16 -19 -29 -2 -13 -9 -22 -17 -20 -12 3 -12 0 -2 -12 11 -13 10 -15 -8
-11 -18 3 -20 1 -11 -16 8 -15 7 -21 -4 -25 -8 -3 -17 -12 -20 -20 -4 -9 -2
-12 5 -8 7 4 7 0 -1 -15 -6 -13 -16 -19 -23 -14 -8 4 -8 2 1 -9 9 -12 10 -18
2 -23 -6 -4 -10 -14 -8 -23 1 -10 -2 -24 -7 -32 -13 -21 -15 -41 -3 -34 5 4 4
-4 -3 -17 -18 -32 -20 -49 -6 -49 7 0 7 -4 -2 -9 -8 -5 -11 -16 -8 -26 4 -9 3
-14 -3 -10 -6 3 -10 1 -10 -5 0 -6 -4 -9 -8 -6 -4 2 -8 -5 -9 -17 -4 -80 -7
-107 -15 -107 -4 0 -8 -5 -8 -11 0 -5 6 -7 12 -4 7 4 3 -2 -9 -13 -17 -15 -19
-22 -10 -32 8 -9 9 -11 1 -6 -8 4 -13 -9 -16 -39 -2 -25 0 -45 4 -45 4 0 5 -7
2 -15 -4 -8 -10 -13 -15 -10 -4 3 -6 -4 -4 -15 2 -11 -1 -20 -7 -20 -7 0 -7
-4 0 -12 13 -16 13 -28 0 -51 -6 -12 -6 -23 2 -32 8 -9 8 -15 0 -20 -8 -5 -8
-10 0 -20 8 -10 7 -16 -6 -23 -12 -7 -13 -11 -5 -17 8 -5 9 -11 2 -19 -6 -7
-12 -40 -13 -74 -2 -34 -6 -62 -9 -62 -4 0 -9 -9 -12 -20 -3 -11 -1 -18 4 -14
5 3 5 -4 0 -18 -5 -15 -5 -31 0 -41 6 -9 6 -17 2 -17 -4 0 -8 -11 -8 -25 0
-14 3 -25 7 -25 4 0 3 -11 -2 -24 -5 -15 -5 -27 2 -34 7 -7 6 -16 -1 -30 -8
-15 -8 -23 -1 -27 8 -5 8 -11 1 -19 -7 -8 -7 -16 -1 -22 6 -6 12 -19 14 -30 9
-47 19 -110 21 -124 0 -9 4 -21 9 -28 4 -7 3 -19 -3 -26 -7 -9 -7 -16 1 -24 7
-7 8 -12 4 -12 -5 0 -2 -8 5 -17 10 -11 10 -14 2 -9 -7 4 -13 2 -13 -3 0 -6 5
-11 11 -11 6 0 8 -9 4 -20 -4 -12 -2 -20 5 -20 8 0 8 -6 0 -20 -7 -14 -7 -20
0 -20 5 0 10 -10 10 -23 0 -12 7 -32 15 -45 15 -20 15 -21 -2 -16 -16 5 -16 4
1 -10 11 -9 16 -16 12 -16 -5 0 -4 -6 2 -13 7 -8 7 -18 2 -27 -5 -8 -4 -22 2
-33 7 -15 7 -22 -3 -29 -11 -8 -11 -9 2 -5 9 3 21 -4 28 -15 7 -11 8 -17 2
-13 -6 3 -11 1 -11 -4 0 -6 5 -11 11 -11 5 0 7 -4 4 -10 -3 -5 -2 -10 3 -10 5
0 9 -6 10 -12 3 -42 12 -81 23 -94 9 -11 9 -14 -1 -14 -10 0 -9 -4 1 -16 13
-16 14 -20 23 -84 3 -19 5 -35 6 -35 1 0 3 -11 6 -24 2 -13 12 -30 22 -38 9
-8 11 -12 5 -8 -19 9 -16 -3 9 -38 12 -17 16 -27 9 -23 -10 7 -11 4 -2 -13 7
-12 9 -26 6 -31 -3 -6 -1 -10 4 -10 6 0 11 -11 11 -25 0 -13 8 -29 18 -34 13
-8 14 -10 2 -11 -13 0 -13 -1 0 -10 8 -5 11 -10 6 -10 -5 0 1 -12 15 -27 13
-15 16 -21 6 -14 -15 12 -17 12 -12 0 3 -8 18 -23 33 -33 16 -11 19 -15 8 -11
-19 6 -19 5 -3 -13 9 -10 14 -22 10 -25 -3 -4 0 -7 8 -7 11 0 11 -2 -1 -10
-12 -8 -12 -10 5 -10 17 0 17 -2 5 -10 -8 -5 -10 -10 -5 -10 6 0 16 -9 23 -21
9 -14 9 -19 2 -14 -7 4 -5 -6 4 -23 9 -17 16 -39 16 -48 0 -9 12 -28 28 -42
15 -13 22 -22 16 -19 -6 4 -11 0 -11 -8 0 -8 5 -13 11 -12 6 1 10 -6 10 -15
-1 -10 2 -18 8 -18 5 0 7 -4 3 -9 -3 -5 1 -15 8 -23 8 -7 12 -18 10 -25 -2 -6
6 -18 18 -27 13 -8 20 -19 16 -22 -4 -4 2 -14 13 -21 11 -8 17 -19 14 -25 -4
-6 -1 -14 5 -18 7 -4 13 -16 14 -28 0 -11 5 -18 9 -16 4 3 8 -4 8 -15 0 -12 4
-21 9 -21 5 0 12 -7 15 -16 4 -10 2 -13 -7 -9 -6 4 -3 -2 9 -12 11 -10 18 -25
16 -32 -3 -8 0 -11 5 -8 6 4 15 -5 22 -19 7 -17 8 -23 0 -19 -6 4 -5 -3 3 -16
7 -13 19 -28 26 -32 11 -7 11 -11 0 -25 -8 -9 -8 -13 -1 -9 8 5 12 -11 15 -53
1 -33 -1 -60 -6 -60 -4 0 -6 -9 -3 -20 3 -11 1 -20 -4 -20 -5 0 -9 -9 -9 -21
0 -11 -4 -18 -8 -15 -4 2 -9 -4 -9 -15 -1 -11 3 -17 9 -13 5 4 2 -5 -7 -19 -9
-15 -14 -31 -10 -37 3 -5 1 -10 -5 -10 -6 0 -8 -5 -5 -10 3 -5 1 -10 -5 -10
-8 0 -8 -5 -1 -17 7 -13 5 -23 -7 -37 -9 -11 -11 -16 -5 -12 7 4 13 2 13 -3 0
-6 -4 -11 -10 -11 -5 0 -6 -7 -3 -17 4 -11 3 -14 -5 -9 -7 4 -12 4 -13 -1 0
-4 -3 -17 -6 -28 -2 -11 -4 -30 -4 -42 0 -13 -4 -23 -10 -23 -5 0 -7 -5 -4
-10 3 -6 2 -10 -4 -10 -6 0 -7 -7 -4 -17 5 -12 3 -14 -7 -8 -9 5 -11 4 -6 -4
4 -6 3 -17 -2 -24 -5 -7 -8 -22 -7 -34 1 -12 -2 -20 -7 -17 -4 3 -8 -3 -8 -13
0 -10 -7 -29 -16 -41 -8 -12 -12 -27 -9 -32 6 -9 -8 -14 -28 -11 -5 1 -6 -3
-2 -9 3 -6 12 -8 18 -4 7 3 1 -3 -12 -14 -15 -12 -21 -24 -16 -32 6 -9 4 -11
-4 -6 -8 5 -12 3 -10 -5 3 -26 -1 -40 -10 -34 -6 3 -8 -4 -6 -15 2 -12 -2 -23
-11 -27 -12 -4 -12 -8 -2 -21 7 -9 9 -13 3 -10 -5 3 -16 0 -23 -8 -10 -11 -10
-14 0 -14 9 0 9 -3 -2 -10 -8 -5 -11 -10 -6 -10 4 0 1 -12 -9 -26 -11 -18 -12
-24 -4 -18 11 6 12 5 2 -8 -7 -8 -9 -19 -5 -23 4 -5 1 -5 -5 -1 -8 4 -13 1
-13 -9 0 -9 -4 -14 -9 -11 -5 3 -12 -1 -15 -10 -4 -9 -2 -13 5 -8 7 4 7 0 -1
-15 -6 -12 -15 -19 -20 -16 -6 4 -7 -1 -3 -11 5 -14 3 -16 -10 -11 -15 5 -16
3 -7 -12 7 -15 6 -18 -8 -17 -9 0 -16 -5 -14 -12 1 -7 -5 -15 -13 -18 -8 -4
-15 -13 -15 -21 0 -8 -4 -11 -10 -8 -6 3 -7 -1 -4 -9 4 -9 -1 -18 -10 -22 -9
-3 -13 -10 -10 -15 3 -6 1 -16 -6 -24 -7 -9 -8 -15 0 -20 7 -4 7 -12 0 -26 -6
-11 -7 -19 -1 -19 5 0 12 -7 15 -16 3 -8 2 -12 -4 -9 -6 3 -7 -1 -4 -9 3 -9
10 -14 14 -11 5 3 11 1 15 -5 4 -6 11 -7 17 -4 5 4 4 -4 -3 -17 -11 -21 -10
-22 2 -12 12 10 17 8 27 -8 7 -10 17 -19 23 -19 5 0 8 4 4 10 -3 5 7 3 22 -5
17 -9 29 -11 31 -5 2 6 10 6 21 0 10 -5 21 -7 24 -4 10 10 157 9 157 -1 0 -5
5 -4 12 3 7 7 20 12 29 12 10 0 20 6 22 13 4 8 6 9 6 0 1 -8 10 -9 31 -3 17 5
30 6 30 2 0 -4 11 -7 25 -7 14 0 25 3 25 8 0 4 14 0 31 -9 23 -11 29 -12 23
-2 -6 10 -4 10 9 -1 10 -8 20 -11 24 -8 3 4 12 2 20 -4 9 -8 13 -8 13 -1 0 6
6 9 14 6 22 -9 246 -10 246 -1 0 4 9 3 19 -3 12 -6 22 -6 25 -1 3 5 21 5 41 1
21 -5 35 -4 35 1 0 6 8 5 19 -1 12 -6 22 -6 25 -1 3 5 21 5 41 1 21 -5 35 -4
35 1 0 6 8 5 19 -1 12 -6 22 -6 25 -1 7 10 31 9 42 -2 4 -3 15 -2 25 3 12 7
19 6 22 -3 4 -9 6 -9 6 1 1 6 10 12 22 12 11 0 30 5 41 11 14 7 23 8 30 1 7
-7 19 -7 34 -2 13 5 24 6 24 2 0 -4 11 -7 25 -7 14 0 25 4 25 8 0 4 8 3 18 -2
11 -6 24 -6 35 0 9 6 17 6 17 2 0 -4 11 -8 25 -8 14 0 25 4 25 8 0 4 9 3 20
-3 14 -8 20 -8 20 0 0 8 6 8 20 0 14 -8 26 -8 40 0 14 8 20 8 20 0 0 -8 6 -8
20 0 14 8 20 8 20 0 0 -8 6 -8 20 0 14 8 20 8 20 0 0 -6 5 -8 11 -5 15 10 80
12 85 3 3 -4 16 -3 30 2 14 6 23 7 21 2 -3 -4 17 -7 44 -7 27 0 49 4 49 8 0 4
8 4 18 -1 9 -5 26 -6 37 -2 11 4 30 3 43 -1 14 -6 31 -5 43 1 13 8 19 7 19 0
0 -8 6 -8 20 0 14 8 20 8 20 0 0 -8 6 -8 20 0 14 8 20 8 20 0 0 -7 6 -8 17 -2
11 6 27 5 48 -4 32 -13 84 -13 118 -1 36 14 47 16 47 9 0 -4 11 -7 25 -7 14 0
25 4 25 8 0 4 9 3 20 -3 14 -8 20 -8 20 0 0 7 6 8 19 0 23 -12 54 -3 44 14 -4
6 1 5 10 -2 14 -12 16 -11 12 7 -3 18 -1 20 15 11 16 -9 18 -7 15 11 -4 18 -2
19 12 7 15 -12 15 -11 4 10 -8 16 -9 22 0 22 7 0 10 22 7 65 -1 36 1 65 6 65
4 0 6 8 3 19 -3 11 4 26 15 36 12 10 18 24 15 36 -3 10 -1 19 5 19 5 0 6 5 3
10 -3 6 1 17 9 26 9 9 14 26 12 40 -3 14 -1 22 5 19 5 -4 10 0 11 7 0 7 2 18
3 23 2 6 3 16 4 24 0 7 7 11 14 8 10 -4 13 2 9 19 -3 18 0 24 12 24 10 0 14 5
11 10 -4 6 5 10 24 8 17 -1 31 -7 31 -13 0 -5 4 -4 9 3 7 11 11 11 22 -1 8 -7
20 -12 28 -9 7 2 17 -2 22 -9 7 -11 9 -11 9 -1 0 10 4 9 16 -3 11 -10 19 -13
23 -6 4 6 12 7 21 1 8 -6 27 -10 42 -10 14 0 28 -5 30 -12 4 -11 27 -15 110
-19 21 -1 36 -5 33 -9 -3 -5 6 -7 20 -6 14 2 30 -3 36 -10 8 -9 17 -11 29 -4
10 5 21 5 26 0 5 -5 30 -10 56 -12 27 -2 48 -7 48 -11 0 -5 5 -5 10 -2 5 3 10
1 10 -6 0 -10 3 -10 11 -2 8 8 20 8 36 2 16 -6 31 -5 44 1 13 8 19 7 19 0 0
-6 5 -8 11 -5 13 9 79 12 79 5 0 -3 16 -5 35 -5 19 0 35 4 35 8 0 4 8 4 18 0
9 -5 26 -7 37 -7 11 1 28 2 38 3 10 1 16 5 13 9 -3 5 12 8 34 8 21 -1 36 2 33
7 -2 4 3 7 13 7 9 0 23 8 31 18 8 9 12 11 8 5 -3 -7 -2 -13 3 -13 6 0 13 7 16
16 4 9 13 14 21 10 8 -3 15 -1 15 4 0 6 6 9 13 7 6 -1 11 5 9 13 -2 11 2 10
12 -3 14 -18 15 -17 18 5 2 13 10 23 18 23 9 0 15 9 14 22 -1 18 2 20 15 13
13 -7 17 -4 18 13 1 12 7 23 13 25 5 2 10 14 10 27 0 13 6 30 13 37 8 7 12 19
9 26 -2 6 0 12 5 12 5 0 9 18 9 41 -1 22 2 43 7 46 4 2 2 13 -3 24 -6 11 -7
19 -1 19 5 0 6 14 1 35 -4 20 -4 38 1 41 5 3 5 13 -1 25 -6 10 -7 19 -3 19 4
0 6 22 5 50 -3 35 0 50 8 50 9 0 10 3 1 13 -14 18 -2 30 16 15 11 -9 13 -8 11
2 -2 7 8 16 22 20 14 4 24 12 23 18 -2 7 4 9 14 5 13 -5 15 -2 10 12 -6 15 -5
16 8 5 12 -10 15 -10 15 3 0 9 9 22 20 30 11 8 17 17 13 21 -4 4 0 4 9 1 21
-8 42 28 43 76 1 20 5 41 9 47 4 7 2 12 -4 12 -7 0 -7 7 2 23 6 12 12 32 12
44 1 12 5 25 10 30 5 5 6 3 2 -4 -4 -7 -2 -13 3 -13 6 0 11 7 11 15 0 8 5 15
11 15 8 0 7 6 -2 17 -10 11 -10 14 -1 9 11 -7 16 10 15 52 -1 6 3 12 8 12 5 0
9 5 9 11 0 5 -5 7 -12 3 -6 -4 -4 3 5 16 12 17 13 27 6 36 -7 9 -7 19 1 33 7
15 7 21 0 21 -8 0 -8 6 0 20 8 14 8 20 0 20 -8 0 -8 6 0 20 8 14 8 20 0 20 -7
0 -8 6 -2 18 5 9 7 23 5 30 -3 6 0 12 6 12 6 0 11 5 11 11 0 6 7 17 15 25 8 9
15 11 15 5 0 -7 8 -7 25 -1 17 7 25 6 25 -1 0 -8 4 -8 13 -1 6 5 27 13 45 17
17 3 32 10 32 15 0 4 8 7 18 6 9 0 16 5 14 12 -1 8 2 11 7 8 5 -3 26 10 47 29
21 19 44 35 51 35 7 0 13 5 13 10 0 6 10 20 21 31 17 17 19 23 8 30 -11 7 -10
9 4 9 15 0 16 3 7 20 -6 11 -7 20 -1 20 5 0 6 14 1 35 -4 20 -4 38 1 41 5 3 5
13 -1 25 -6 10 -7 19 -3 19 4 0 8 11 8 25 0 14 -4 25 -9 25 -5 0 -7 3 -3 6 3
4 -4 15 -16 26 -12 11 -16 17 -9 13 6 -3 12 -1 12 4 0 6 -4 11 -8 11 -7 0 -12
19 -15 62 -1 9 -12 22 -24 29 -13 7 -23 19 -23 26 0 8 -4 11 -10 8 -5 -3 -10
-1 -10 5 0 6 -5 8 -12 4 -8 -5 -9 -2 -5 9 4 11 1 17 -8 17 -8 0 -15 5 -15 11
0 5 -5 7 -12 3 -7 -4 -8 -3 -4 5 4 7 -2 20 -16 32 -13 11 -17 18 -10 14 6 -3
12 -1 12 4 0 6 -5 11 -11 11 -5 0 -7 5 -3 12 5 7 2 9 -9 5 -11 -4 -14 -2 -10
9 3 9 -1 14 -13 14 -16 0 -17 2 -4 10 13 8 12 10 -2 10 -16 0 -23 11 -19 33 0
4 -3 7 -8 7 -6 0 -8 9 -6 21 4 18 2 19 -12 7 -10 -8 -14 -8 -10 -1 4 6 2 15
-4 18 -5 4 -8 14 -4 22 4 12 2 13 -8 5 -10 -8 -13 -7 -14 6 -3 40 -9 58 -20
65 -7 4 -13 16 -13 26 0 10 -8 43 -19 74 -10 31 -14 54 -10 51 5 -3 5 6 -1 20
-6 17 -6 27 1 32 7 4 7 10 0 18 -7 9 -7 16 0 23 8 8 8 13 0 17 -8 5 -8 13 -1
27 8 13 7 19 0 19 -7 0 -8 6 -1 19 6 10 7 21 3 25 -3 4 0 11 8 16 10 6 11 10
3 10 -7 0 -10 7 -7 15 4 8 11 12 16 9 6 -4 6 1 -1 13 -6 11 -8 23 -4 26 3 4 7
25 10 49 2 23 8 45 14 49 7 4 8 12 4 19 -5 8 -4 11 2 7 11 -7 13 4 12 81 0 26
4 41 10 38 15 -10 26 15 27 65 1 26 4 51 8 57 3 6 1 14 -5 18 -9 5 -7 11 6 21
11 7 14 13 9 13 -6 0 -11 6 -11 14 0 8 6 12 15 9 11 -5 12 -2 4 13 -7 13 -7
26 -1 37 6 11 6 24 -1 36 -7 14 -7 22 0 26 8 5 7 11 0 20 -7 8 -8 20 -4 27 8
13 10 20 19 68 8 43 10 110 4 110 -4 0 -10 7 -13 16 -3 8 -2 12 4 9 6 -3 10
-2 10 3 0 6 -6 12 -14 15 -11 4 -12 14 -6 40 4 19 4 41 -1 48 -4 7 -5 17 -3
21 3 4 1 8 -5 8 -6 0 -7 7 -4 17 4 11 3 14 -5 9 -7 -4 -12 -1 -12 8 0 25 -2
30 -19 44 -12 10 -12 12 -1 6 13 -7 13 -5 1 9 -7 9 -10 17 -5 17 5 0 0 7 -10
15 -14 11 -16 15 -5 15 12 1 12 2 -1 13 -8 7 -17 19 -18 27 -2 8 -6 24 -9 35
-2 11 -5 26 -5 33 -1 6 -6 12 -12 12 -6 0 -4 5 4 10 10 6 11 10 2 10 -6 0 -11
3 -10 8 2 9 -10 40 -28 73 -7 14 -11 29 -7 33 3 3 1 6 -7 6 -10 0 -10 4 1 17
8 9 9 14 2 10 -7 -4 -14 1 -18 13 -3 11 -12 20 -18 20 -8 0 -8 3 1 9 11 7 11
11 -2 23 -10 11 -12 18 -4 26 12 12 -24 36 -37 24 -5 -4 -5 -1 -1 6 4 6 2 12
-5 12 -7 0 -9 10 -7 25 3 13 2 22 -2 20 -4 -3 -14 3 -21 12 -10 12 -10 14 -1
9 21 -13 13 11 -10 28 -13 9 -16 14 -8 10 12 -7 13 -5 3 8 -7 8 -9 19 -5 23 4
5 1 5 -5 1 -8 -4 -13 -1 -13 8 0 9 -4 16 -10 16 -5 0 -10 5 -10 11 0 7 -8 18
-17 26 -10 8 -12 12 -5 8 20 -10 14 5 -10 27 -13 11 -17 17 -11 13 9 -4 11 -1
7 9 -3 9 -10 13 -15 10 -5 -3 -9 2 -9 10 0 9 -4 16 -10 16 -5 0 -15 10 -21 23
-12 21 -11 21 7 7 18 -14 18 -14 5 3 -7 9 -22 17 -32 17 -12 0 -16 5 -13 15 4
8 -1 17 -10 21 -9 3 -16 10 -16 16 0 5 6 6 13 2 8 -5 8 -2 -2 9 -15 19 -26 23
-15 5 5 -7 3 -8 -5 -4 -7 5 -10 15 -6 23 4 13 3 14 -10 3 -13 -11 -14 -10 -9
4 4 9 1 16 -6 16 -7 0 -10 7 -6 16 6 14 4 15 -9 4 -9 -7 -15 -9 -14 -4 4 23
-2 45 -11 39 -5 -3 -10 -2 -10 2 0 5 -7 18 -15 29 -15 19 -15 19 -10 -1 3 -11
-2 -5 -10 13 -14 29 -25 37 -48 33 -5 -1 -6 2 -4 6 7 11 -19 33 -28 25 -5 -4
-5 3 -2 16 3 12 1 19 -4 16 -5 -3 -12 1 -15 10 -3 9 -12 12 -21 9 -11 -4 -14
-2 -9 5 4 7 2 12 -4 12 -6 0 -8 5 -5 10 3 6 -3 10 -13 10 -11 0 -26 8 -33 18
-11 14 -11 15 1 5 8 -7 18 -13 24 -13 5 0 1 6 -9 14 -11 8 -27 12 -37 11 -10
-2 -17 -1 -17 3 1 4 1 14 0 22 -1 13 -2 13 -12 0 -9 -12 -10 -11 -6 7 5 20 3
22 -16 11 -12 -6 -19 -7 -15 -3 11 11 -12 36 -25 28 -6 -3 -7 -1 -3 5 4 7 2
20 -4 29 -10 16 -11 16 -6 -2 6 -19 6 -19 -9 -1 -8 10 -12 23 -9 27 3 5 -3 6
-12 2 -12 -5 -15 -3 -9 6 5 10 2 11 -14 6 -18 -5 -24 -2 -28 16 -6 20 -7 21
-13 5 -6 -17 -7 -17 -20 0 -9 11 -10 15 -3 10 9 -5 11 -2 7 8 -3 8 -12 12 -20
9 -8 -3 -14 0 -14 6 0 6 -7 11 -16 11 -9 0 -12 5 -8 12 4 6 3 8 -4 4 -6 -3
-17 1 -25 9 -9 8 -20 15 -26 15 -6 0 -11 4 -11 10 0 5 -3 9 -7 9 -20 -3 -46 2
-40 8 10 9 -31 35 -43 28 -6 -3 -13 1 -16 9 -3 9 -12 16 -19 16 -7 0 -18 7
-25 15 -7 9 -19 14 -27 11 -7 -3 -13 -1 -13 4 0 6 -9 10 -21 10 -11 0 -18 4
-15 8 2 4 -5 9 -17 9 -11 1 -25 9 -29 18 -11 18 -32 21 -23 3 4 -7 0 -5 -8 5
-8 9 -24 17 -36 17 -11 0 -21 4 -21 10 0 5 -3 9 -7 9 -28 -4 -56 4 -73 21 -12
12 -25 18 -30 15 -5 -3 -12 0 -16 6 -5 8 -3 9 7 4 8 -5 11 -4 6 1 -5 5 -21 10
-35 11 -46 4 -52 6 -52 16 0 5 -7 4 -15 -3 -12 -10 -16 -10 -20 1 -3 8 -15 15
-28 15 -34 3 -51 8 -59 19 -5 6 -8 4 -8 -4 0 -11 -5 -9 -21 5 -12 10 -23 18
-25 17 -12 -8 -24 -1 -18 10 5 9 4 9 -6 0 -8 -7 -20 -9 -35 -3 -13 5 -25 6
-29 3 -7 -8 -58 6 -52 15 2 4 -10 7 -27 6 -18 0 -44 6 -59 13 -15 7 -29 9 -32
5 -6 -11 -219 8 -232 20 -3 4 -17 3 -30 -2 -13 -5 -24 -6 -24 -2 0 4 -11 7
-25 7 -14 0 -25 -4 -25 -8 0 -4 -8 -3 -18 2 -11 6 -24 6 -35 0 -9 -6 -17 -6
-17 -2 0 4 -11 8 -25 8 -14 0 -25 -4 -25 -8 0 -4 -9 -3 -20 3 -14 8 -20 8 -20
0 0 -7 -6 -8 -17 -1 -10 5 -26 5 -40 0 -17 -6 -25 -4 -31 8 -5 9 -12 11 -15 6z
m259 -284 c-4 6 -2 11 3 11 6 0 11 -5 11 -11 0 -5 5 -7 10 -4 6 3 10 1 10 -5
0 -7 6 -8 18 -1 10 5 24 6 32 1 8 -5 21 -5 31 1 12 6 20 5 25 -2 4 -7 9 -8 17
0 7 7 16 7 29 0 12 -7 18 -6 18 1 0 6 5 8 13 3 12 -8 28 -12 60 -15 9 -1 17
-5 17 -8 0 -3 11 -5 25 -5 14 0 25 3 25 6 0 3 7 6 15 6 8 0 15 -4 15 -9 0 -4
14 -8 30 -8 17 0 30 -4 30 -10 0 -6 9 -6 24 0 17 6 29 5 42 -5 22 -17 38 -19
29 -5 -3 6 1 7 9 4 9 -3 16 -11 16 -16 0 -6 9 -8 20 -5 11 3 18 1 14 -4 -3 -5
3 -10 13 -10 44 -3 60 -7 80 -18 12 -6 33 -11 47 -11 15 0 25 -5 24 -12 -2 -7
4 -13 12 -14 8 0 23 -2 33 -2 10 -1 15 -6 12 -12 -3 -5 0 -8 7 -5 7 3 31 -4
53 -15 21 -11 47 -20 57 -20 9 0 21 -6 25 -12 4 -7 15 -13 23 -13 8 0 14 -6
12 -13 -2 -10 2 -10 18 -2 16 9 22 8 26 -5 3 -8 13 -15 21 -15 9 0 22 -8 30
-17 9 -12 12 -13 8 -3 -4 8 3 4 15 -10 12 -14 18 -18 14 -10 -7 13 -5 13 9 2
9 -8 21 -11 27 -7 5 3 10 2 10 -3 0 -5 9 -12 21 -15 12 -3 18 -10 14 -16 -3
-6 0 -9 8 -5 8 3 17 -2 20 -10 4 -9 14 -16 22 -16 9 0 13 -4 10 -10 -3 -5 -1
-10 5 -10 6 0 9 -4 6 -9 -4 -5 3 -7 14 -4 11 3 20 0 20 -6 0 -6 6 -11 14 -11
7 0 16 -9 19 -21 3 -12 10 -18 16 -15 5 4 12 2 16 -4 4 -6 11 -7 17 -4 7 5 8
2 3 -6 -5 -8 -3 -11 5 -8 7 2 23 -5 35 -16 12 -12 34 -30 47 -41 14 -11 24
-23 22 -27 -3 -4 5 -9 16 -13 11 -3 20 -11 20 -16 0 -6 5 -7 10 -4 6 4 10 3 9
-2 -3 -20 2 -34 11 -28 6 3 10 1 10 -5 0 -6 5 -8 12 -4 8 5 9 2 4 -12 -4 -10
-4 -15 0 -11 12 12 33 -13 27 -31 -6 -15 -4 -15 9 -4 13 10 18 10 24 1 5 -8 3
-10 -7 -5 -8 4 -6 1 3 -7 10 -8 15 -16 12 -20 -3 -3 4 -8 15 -12 12 -3 21 -11
21 -16 0 -6 5 -7 12 -3 6 4 9 3 5 -2 -3 -5 1 -20 10 -34 8 -14 12 -17 9 -8 -3
10 0 20 6 24 7 4 8 3 4 -5 -4 -6 -1 -14 8 -17 8 -3 13 -14 11 -25 -2 -12 2
-19 11 -19 8 0 12 -4 9 -10 -3 -5 -1 -10 4 -10 6 0 11 -7 11 -15 0 -8 5 -15
11 -15 6 0 8 -7 5 -16 -6 -14 -4 -15 9 -4 9 7 15 9 14 4 -3 -20 1 -45 9 -41 4
3 13 -1 20 -9 7 -8 10 -14 6 -14 -3 0 2 -8 13 -17 10 -10 12 -13 4 -8 -12 9
-12 7 -1 -12 8 -12 18 -19 22 -17 4 3 8 -2 8 -11 0 -8 6 -18 14 -21 8 -3 12
-13 9 -25 -3 -11 0 -19 6 -19 7 0 10 -4 6 -9 -3 -5 -1 -12 5 -16 6 -4 8 -10 5
-15 -2 -4 12 -22 32 -39 20 -17 32 -31 27 -31 -6 0 -14 3 -20 8 -5 4 -1 -1 9
-10 11 -10 16 -18 12 -18 -5 0 0 -10 11 -22 10 -12 13 -18 7 -14 -7 4 -13 2
-13 -4 0 -6 7 -13 15 -16 8 -4 15 -13 15 -21 0 -9 8 -22 18 -30 9 -8 11 -12 5
-8 -7 3 -13 1 -13 -4 0 -6 5 -11 10 -11 6 0 9 -3 8 -7 -1 -5 4 -19 11 -32 7
-13 8 -21 2 -17 -7 5 -9 1 -5 -8 3 -9 10 -16 16 -16 5 0 6 -4 3 -10 -3 -5 0
-10 7 -10 9 0 9 -3 -2 -10 -11 -7 -11 -10 -2 -10 7 0 12 -8 10 -18 -2 -11 4
-27 12 -37 9 -11 10 -16 3 -11 -7 4 -13 2 -13 -3 0 -6 5 -11 11 -11 5 0 8 -4
4 -9 -3 -5 -1 -12 4 -16 6 -3 8 -12 4 -20 -3 -9 1 -15 8 -15 12 0 12 -2 1 -9
-11 -6 -10 -11 3 -25 10 -9 15 -25 12 -36 -3 -12 1 -24 10 -29 10 -5 12 -10 5
-15 -7 -4 -8 -15 -2 -30 5 -13 6 -27 3 -30 -4 -3 0 -6 8 -6 12 0 12 -2 -1 -10
-12 -8 -12 -10 3 -16 9 -3 17 -17 17 -29 0 -13 6 -25 13 -28 9 -3 9 -7 0 -17
-8 -9 -9 -19 -2 -32 6 -10 6 -18 0 -18 -5 0 -6 -14 -1 -35 4 -20 4 -38 -1 -41
-5 -3 -5 -13 1 -25 6 -11 7 -19 1 -19 -5 0 -7 -16 -5 -35 2 -21 -1 -33 -6 -30
-6 4 -10 1 -10 -5 0 -6 -4 -9 -9 -6 -5 4 -21 2 -35 -4 -18 -7 -26 -6 -26 1 0
6 -9 9 -20 6 -10 -3 -25 2 -31 9 -7 8 -18 13 -25 10 -7 -3 -16 -1 -19 5 -4 5
-10 7 -14 5 -4 -3 -18 4 -29 15 -12 11 -22 17 -22 13 0 -3 -8 0 -17 7 -11 10
-14 10 -9 2 4 -7 2 -13 -3 -13 -6 0 -11 8 -11 17 0 9 -3 13 -7 10 -3 -4 -13
-1 -21 6 -13 10 -14 9 -8 -1 6 -10 0 -9 -23 2 -18 10 -31 12 -31 6 0 -8 -6 -8
-20 0 -14 8 -26 8 -40 0 -14 -8 -20 -8 -20 0 0 6 -5 8 -11 5 -16 -10 -80 -12
-86 -2 -3 4 -11 3 -18 -3 -9 -8 -15 -8 -20 0 -4 7 -12 7 -26 0 -11 -6 -24 -8
-29 -5 -9 6 -15 -9 -11 -29 1 -5 -4 -5 -11 1 -9 8 -16 7 -25 -2 -10 -11 -10
-15 0 -18 7 -3 4 -6 -6 -6 -9 -1 -16 -7 -15 -13 2 -7 -3 -12 -11 -10 -11 2
-12 0 -2 -11 9 -12 8 -16 -6 -21 -10 -4 -13 -10 -8 -14 10 -7 17 -27 18 -49 0
-7 4 -13 9 -13 5 0 6 -5 3 -11 -7 -11 28 -51 42 -48 4 1 15 -1 23 -4 23 -10
170 -13 170 -4 0 5 6 5 13 0 6 -4 22 -6 34 -5 13 2 30 -5 39 -17 14 -16 22
-18 37 -9 14 7 17 7 13 -1 -6 -10 6 -15 27 -12 4 0 7 -5 7 -11 0 -10 3 -9 9 1
7 11 11 9 21 -9 10 -18 14 -20 21 -9 7 11 9 10 9 -3 0 -16 17 -23 42 -19 4 0
5 -5 2 -12 -3 -9 3 -13 18 -13 13 1 26 -8 33 -21 7 -13 15 -20 18 -16 4 3 8 2
8 -3 6 -39 4 -73 -6 -99 -9 -26 -11 -49 -5 -65 7 -20 7 -40 -1 -40 -6 0 -5 -9
1 -21 6 -11 14 -30 16 -42 7 -31 7 -167 1 -173 -3 -3 -2 -18 3 -34 5 -18 4
-32 -3 -40 -7 -7 -7 -10 -2 -7 14 8 38 -30 25 -38 -7 -4 -6 -13 0 -26 8 -13 7
-19 0 -19 -7 0 -7 -7 1 -21 6 -12 13 -36 16 -53 3 -17 9 -33 15 -35 6 -2 5 -7
-3 -12 -11 -7 -10 -9 4 -9 15 0 22 -11 18 -33 -1 -5 3 -6 9 -2 5 3 10 1 10 -5
0 -7 6 -10 14 -7 10 4 12 0 8 -15 -3 -12 -1 -19 4 -15 6 3 16 2 24 -4 10 -6
11 -9 3 -9 -7 0 -13 -5 -13 -11 0 -6 7 -8 16 -5 9 3 12 2 9 -5 -4 -5 -1 -16 5
-24 8 -9 8 -15 2 -15 -5 0 -8 -9 -5 -20 3 -11 8 -18 12 -16 4 3 8 -5 8 -16 1
-11 9 -28 18 -37 9 -9 23 -25 31 -36 14 -19 14 -19 3 5 l-12 25 20 -20 c11
-11 19 -28 17 -37 -2 -13 4 -18 24 -19 15 0 21 -3 15 -6 -9 -3 -3 -14 17 -34
16 -16 27 -36 24 -43 -3 -7 2 -19 11 -26 8 -7 15 -18 15 -24 0 -6 -5 -4 -11 4
-9 13 -10 13 -6 0 2 -8 12 -14 21 -14 16 2 16 0 0 -23 -11 -18 -12 -23 -3 -18
8 3 5 -1 -5 -9 -16 -13 -22 -13 -28 -3 -6 9 -8 9 -8 -2 0 -7 -6 -11 -15 -8 -8
4 -17 1 -21 -4 -4 -7 -10 -7 -16 -1 -11 11 -41 4 -33 -7 2 -5 -8 -7 -23 -6
-17 0 -35 -8 -50 -25 -13 -14 -21 -19 -17 -13 3 7 1 13 -4 13 -6 0 -11 -7 -11
-15 0 -12 -40 -43 -48 -36 -1 1 -10 -3 -20 -9 -15 -10 -15 -11 3 -5 14 4 11
-2 -12 -24 -32 -29 -44 -49 -22 -36 6 4 5 -2 -2 -13 -7 -12 -16 -19 -20 -16
-4 2 -8 -4 -8 -13 0 -16 -8 -74 -10 -80 -1 -2 -1 -6 -2 -10 0 -5 -4 -12 -9
-18 -4 -5 -4 -19 0 -30 4 -11 4 -30 -1 -42 -5 -15 -5 -23 2 -23 6 0 7 -5 4
-11 -4 -6 -7 -26 -7 -45 0 -33 -2 -35 -29 -30 -16 2 -29 0 -29 -5 0 -6 -8 -5
-20 1 -16 8 -20 8 -20 -4 0 -7 -7 -17 -16 -20 -13 -5 -14 -4 -6 7 9 10 8 14
-3 14 -8 0 -12 -3 -10 -7 2 -3 -4 -19 -14 -34 -13 -19 -20 -24 -24 -14 -4 9
-6 7 -6 -5 -1 -10 -5 -16 -10 -13 -5 4 -7 -3 -4 -14 3 -11 0 -20 -6 -20 -8 0
-9 -6 -3 -17 5 -10 7 -24 5 -30 -3 -7 0 -13 7 -13 6 0 8 -5 5 -11 -4 -6 1 -17
11 -25 11 -9 13 -13 7 -9 -7 3 -13 1 -13 -6 0 -6 8 -9 18 -7 14 4 18 -1 18
-18 0 -17 -6 -24 -18 -24 -10 0 -21 -7 -24 -15 -4 -8 -10 -15 -16 -15 -5 0 -6
5 -3 10 11 18 -1 11 -21 -12 -15 -19 -16 -20 -1 -9 11 9 17 10 17 2 0 -6 -12
-14 -26 -17 -16 -4 -22 -9 -14 -14 8 -5 5 -9 -9 -13 -12 -3 -21 -10 -21 -17 0
-6 6 -8 13 -4 6 4 2 -4 -10 -17 -14 -15 -21 -34 -19 -52 2 -15 -1 -30 -5 -33
-5 -3 -4 -14 1 -25 8 -14 7 -19 -1 -19 -9 0 -9 -3 0 -14 8 -10 9 -16 1 -21 -7
-4 -7 -12 0 -26 6 -10 7 -19 2 -19 -5 0 -3 -28 4 -62 7 -34 11 -65 8 -69 -2
-4 1 -9 7 -11 8 -3 6 -9 -4 -20 -12 -12 -13 -18 -4 -27 9 -10 9 -12 -3 -9 -9
2 -16 -6 -18 -20 -2 -12 -10 -22 -18 -22 -8 0 -12 -4 -9 -10 6 -9 -14 -14 -42
-11 -6 1 -14 -3 -18 -9 -4 -6 1 -7 11 -3 12 4 15 3 10 -5 -4 -7 -16 -12 -26
-12 -10 0 -22 -4 -25 -10 -4 -6 1 -7 12 -4 15 5 15 4 3 -4 -8 -6 -17 -9 -21
-7 -3 3 -20 0 -37 -5 -18 -4 -34 -5 -36 -1 -3 4 -30 4 -61 1 -31 -3 -59 -2
-61 2 -3 5 -12 4 -19 -2 -10 -8 -15 -8 -20 0 -4 7 -16 10 -26 7 -11 -3 -19 -1
-19 5 0 5 -4 7 -9 3 -5 -3 -12 -1 -15 3 -3 5 -17 8 -31 7 -14 -2 -25 0 -25 4
0 8 -26 11 -83 10 -24 0 -36 4 -32 10 3 6 0 8 -9 5 -8 -3 -23 -1 -34 5 -12 6
-23 6 -28 1 -6 -6 -20 -4 -37 5 -19 10 -25 10 -20 2 5 -9 3 -9 -8 -1 -8 6 -21
12 -29 12 -48 2 -68 7 -90 23 -14 9 -39 19 -55 20 -17 2 -36 11 -43 19 -12 13
-13 13 -8 -2 4 -14 0 -14 -32 5 -25 15 -34 17 -27 6 6 -8 2 -7 -7 4 -10 10
-22 16 -27 13 -5 -3 -11 1 -15 9 -3 8 -12 12 -21 9 -8 -3 -15 -1 -15 5 0 6 -5
11 -11 11 -5 0 -7 -4 -4 -10 3 -6 -1 -7 -9 -4 -9 3 -16 10 -16 16 0 5 -8 8
-18 6 -10 -1 -28 7 -41 18 -13 13 -30 20 -42 17 -12 -3 -19 0 -19 8 0 11 -2
11 -10 -1 -5 -8 -10 -12 -11 -7 -1 4 -3 12 -4 17 -1 6 -3 13 -4 18 -1 4 -5 1
-9 -6 -7 -9 -15 -6 -37 14 -15 14 -25 19 -22 10 4 -10 1 -13 -9 -9 -7 3 -14 9
-14 15 0 5 -5 6 -10 3 -6 -3 -10 0 -11 7 0 10 -2 10 -6 0 -3 -8 -11 -4 -25 13
-11 14 -24 25 -31 25 -6 0 -2 -7 9 -16 18 -14 18 -15 -3 -4 -13 6 -23 15 -23
21 0 6 -5 7 -10 4 -6 -3 -10 -1 -10 5 0 7 -8 9 -19 5 -12 -4 -21 0 -25 11 -6
15 -4 15 11 3 16 -13 17 -12 4 3 -7 10 -17 16 -21 13 -5 -3 -11 -1 -15 5 -3 5
-13 10 -22 10 -9 0 -22 8 -29 18 -10 13 -13 14 -14 3 0 -8 -11 0 -25 19 -14
19 -25 30 -25 25 0 -5 6 -16 13 -25 6 -9 0 -4 -15 11 -14 15 -29 24 -33 21 -4
-4 -6 -2 -5 3 5 24 -1 34 -17 28 -11 -4 -14 -3 -9 5 4 7 2 12 -4 12 -6 0 -8 5
-4 12 4 6 3 8 -3 5 -6 -4 -17 1 -24 10 -12 15 -12 16 6 9 16 -6 17 -5 8 5 -10
9 -15 10 -27 0 -11 -9 -16 -9 -22 0 -4 8 -3 9 4 5 19 -11 14 5 -5 20 -10 7
-28 14 -40 14 -13 0 -23 5 -23 11 0 6 -5 7 -12 2 -7 -4 -21 -6 -30 -5 -10 2
-18 -2 -18 -9 0 -8 -4 -8 -15 1 -13 11 -14 10 -9 -4 3 -9 1 -16 -6 -16 -6 0
-8 -5 -4 -13 6 -9 4 -9 -8 1 -14 11 -16 10 -14 -13 3 -22 1 -23 -12 -13 -13
10 -14 10 -8 1 4 -7 3 -13 -2 -13 -18 0 -10 -103 9 -129 10 -13 16 -28 12 -35
-4 -7 -1 -6 9 1 18 15 29 7 21 -15 -4 -10 -3 -14 2 -10 10 10 37 -11 29 -23
-3 -5 3 -6 13 -2 10 3 15 3 11 -1 -8 -9 34 -55 44 -49 4 2 5 -3 2 -11 -4 -10
2 -16 18 -18 13 -2 22 -9 21 -15 -2 -7 4 -10 11 -7 8 3 24 -4 35 -15 12 -12
28 -21 37 -21 8 0 13 -3 11 -7 -3 -5 7 -17 22 -27 l26 -20 -20 24 -20 23 28
-18 c15 -9 27 -21 27 -26 0 -5 7 -9 15 -9 8 0 15 -6 15 -12 0 -9 4 -8 10 2 8
13 10 13 10 -2 0 -11 5 -15 15 -12 9 4 18 -1 21 -11 4 -9 13 -14 21 -11 8 3
11 1 8 -4 -3 -6 1 -10 10 -10 8 0 18 -7 22 -16 5 -13 7 -13 14 -2 5 7 9 8 9 3
0 -6 10 -12 22 -12 29 -3 69 -24 63 -34 -3 -4 5 -5 17 -2 13 3 20 2 16 -2 -4
-4 -1 -20 7 -36 11 -20 12 -30 3 -35 -7 -5 -8 -3 -3 6 5 9 4 11 -4 6 -8 -5 -9
-12 -2 -20 7 -9 5 -16 -9 -26 -15 -10 -17 -17 -8 -27 9 -11 7 -12 -8 -6 -17 6
-17 5 -5 -10 11 -14 11 -18 -3 -23 -13 -5 -14 -9 -5 -21 10 -11 10 -13 -1 -11
-7 2 -16 -8 -20 -22 -4 -14 -12 -24 -19 -22 -9 2 -9 -3 0 -19 8 -17 8 -20 -1
-14 -12 7 -30 -10 -30 -30 0 -5 5 -3 10 5 5 8 10 11 10 5 -1 -16 -26 -45 -33
-38 -4 3 -5 -8 -3 -25 3 -27 0 -33 -20 -38 -13 -3 -42 -4 -64 -2 -22 2 -40 0
-40 -5 0 -4 -9 -3 -19 3 -11 5 -22 7 -24 3 -3 -5 -48 -6 -101 -3 -53 3 -96 1
-96 -3 0 -4 -9 -3 -19 3 -11 5 -22 6 -25 2 -3 -5 -30 -5 -60 -2 -31 3 -56 2
-56 -2 0 -5 -9 -4 -19 2 -12 6 -22 6 -25 1 -3 -5 -21 -5 -41 -1 -21 5 -35 4
-35 -1 0 -6 -8 -5 -19 1 -14 7 -22 7 -26 0 -5 -8 -11 -7 -21 1 -11 9 -14 9
-14 0 0 -8 -5 -9 -19 -1 -11 5 -22 7 -24 2 -3 -4 -39 -5 -81 -2 -42 3 -76 1
-76 -3 0 -4 -9 -3 -19 3 -11 5 -22 7 -24 2 -3 -4 -39 -5 -81 -2 -42 3 -76 1
-76 -3 0 -4 -9 -3 -19 3 -14 7 -22 7 -26 0 -5 -8 -11 -7 -21 1 -11 9 -14 9
-14 0 0 -8 -5 -9 -19 -1 -12 6 -22 6 -25 1 -3 -5 -21 -5 -41 -1 -21 5 -35 4
-35 -1 0 -6 -8 -5 -19 1 -11 5 -22 6 -25 2 -3 -5 -30 -5 -60 -2 -31 3 -56 2
-56 -2 0 -5 -9 -4 -19 2 -11 5 -22 7 -24 3 -3 -5 -48 -6 -101 -3 -53 3 -96 1
-96 -3 0 -4 -9 -3 -19 3 -11 5 -22 7 -25 2 -2 -4 -23 -6 -45 -4 -23 2 -39 7
-37 11 2 3 -17 7 -42 8 -26 1 -64 4 -84 5 -21 2 -38 -1 -38 -5 0 -5 -7 -7 -15
-3 -8 3 -15 1 -15 -3 0 -10 -26 -9 -36 1 -8 9 18 78 29 78 5 0 4 7 -3 16 -11
12 -11 15 0 12 7 -2 16 8 20 22 4 14 12 24 18 23 6 -2 9 4 6 12 -4 9 -1 22 6
30 7 8 9 15 4 15 -4 0 1 7 12 16 10 8 12 13 4 9 -13 -6 -13 -5 0 7 15 13 22
35 22 75 0 16 5 20 17 16 9 -4 13 -2 8 2 -4 5 0 19 8 32 9 13 13 28 10 33 -3
6 -1 10 4 10 6 0 11 7 11 15 0 8 5 15 11 15 8 0 7 6 -2 17 -10 11 -10 14 -1 9
11 -7 17 16 15 62 -1 7 4 11 11 9 8 -3 11 8 10 33 -1 30 2 37 14 32 11 -4 14
0 10 14 -3 11 2 26 10 34 10 9 11 15 4 18 -6 2 -8 10 -5 18 3 7 8 12 12 9 4
-2 8 2 8 10 0 8 -5 12 -10 8 -5 -3 -3 5 4 18 7 13 14 38 15 57 4 41 12 54 27
45 8 -4 8 -2 -1 9 -10 13 -10 17 5 22 15 6 15 8 3 16 -10 7 -11 10 -2 10 6 0
12 9 12 21 0 11 5 29 10 40 8 13 7 19 0 19 -8 0 -8 6 0 20 6 11 8 26 4 32 -5
7 -3 8 6 3 9 -5 10 -2 6 11 -3 11 -2 25 3 33 5 7 5 27 1 42 -5 17 -5 31 1 34
5 4 5 14 -1 26 -7 11 -7 19 -1 19 14 0 7 28 -12 51 -9 10 -17 29 -17 41 0 12
-3 18 -7 15 -9 -10 -35 44 -28 60 2 8 1 12 -4 9 -5 -3 -15 2 -22 11 -10 12
-10 14 -2 9 22 -13 14 11 -9 28 -13 9 -16 14 -8 10 12 -7 13 -5 3 8 -7 8 -10
18 -6 21 3 4 -2 7 -13 8 -11 0 -14 3 -6 6 9 3 7 10 -9 24 -15 13 -18 19 -8 20
10 0 11 2 1 6 -6 2 -9 10 -5 16 4 6 0 8 -11 4 -14 -6 -15 -4 -5 14 8 16 8 20
-1 14 -7 -4 -13 1 -17 14 -3 11 -10 18 -16 14 -6 -4 -8 4 -5 20 3 18 1 24 -8
20 -7 -2 -17 5 -24 16 -6 12 -8 21 -4 21 3 0 0 8 -7 17 -12 14 -12 16 1 9 8
-4 6 0 -5 9 -11 9 -19 25 -17 37 2 11 -1 18 -6 14 -6 -3 -13 1 -16 10 -4 10
-2 13 7 9 6 -4 4 0 -6 8 -9 8 -17 24 -17 36 0 11 -4 21 -9 21 -5 0 -12 7 -15
16 -3 8 -2 12 4 9 20 -13 9 13 -12 29 -13 9 -16 14 -8 10 12 -7 13 -5 3 8 -7
8 -10 18 -6 21 3 4 -2 7 -13 7 -16 0 -17 2 -4 10 8 5 10 10 4 10 -14 0 -38 55
-30 68 3 5 -4 19 -15 31 -11 12 -22 34 -23 48 -2 15 -9 29 -16 31 -9 3 -9 6 1
13 11 7 11 9 1 9 -7 0 -10 5 -7 10 3 6 -1 10 -9 10 -9 0 -16 5 -16 11 0 5 6 7
13 3 8 -6 8 -3 -2 9 -7 9 -14 33 -15 53 -2 20 -9 40 -17 45 -8 5 -10 9 -5 9 4
0 0 12 -9 27 -10 14 -18 45 -19 69 0 23 -4 40 -7 38 -4 -2 -9 3 -13 11 -3 8 0
15 7 15 7 0 8 3 2 8 -5 4 -12 18 -14 32 -1 14 -9 37 -17 52 -10 19 -10 28 -3
30 8 3 6 10 -5 20 -12 12 -13 18 -3 21 7 4 6 6 -4 6 -9 1 -20 8 -23 17 -4 10
-2 13 7 9 6 -4 4 0 -5 8 -10 8 -15 17 -11 21 11 10 11 46 0 46 -5 0 -7 9 -4
20 3 11 2 20 -2 20 -4 0 -8 10 -9 23 -4 37 -7 51 -16 66 -7 11 -6 12 5 5 10
-5 8 0 -4 19 -9 15 -14 27 -10 27 5 0 1 5 -7 10 -12 8 -12 10 -1 10 11 0 11 3
1 15 -7 8 -9 15 -4 15 5 0 2 5 -6 10 -11 7 -11 10 -2 10 10 0 10 5 2 20 -6 11
-7 20 -3 20 4 0 8 18 8 40 0 22 -3 40 -6 40 -4 0 -10 7 -13 16 -4 10 -2 13 7
8 8 -5 7 -2 -2 9 -8 10 -11 20 -8 24 4 3 2 14 -3 24 -7 12 -7 20 0 24 8 5 7
11 -1 21 -8 10 -8 14 -1 14 8 0 8 8 3 23 -5 12 -5 32 0 45 5 13 5 22 -1 22 -5
0 -5 12 -2 28 9 34 9 54 -2 70 -4 7 -3 18 2 25 5 7 8 21 5 32 -8 39 -5 67 7
75 9 6 9 9 1 15 -8 4 -9 11 -2 18 5 7 11 52 12 102 2 60 8 95 18 107 8 9 15
34 17 55 1 21 5 48 8 61 2 12 1 22 -4 22 -5 0 -7 7 -4 15 4 8 10 13 14 10 5
-3 7 3 5 12 -1 10 2 23 7 30 5 7 7 17 3 23 -3 5 1 10 9 10 9 0 16 5 16 11 0 5
-6 7 -12 3 -7 -4 -2 3 10 16 17 16 20 25 12 30 -9 5 -8 11 2 21 12 13 18 31
21 71 1 9 5 14 10 11 5 -3 7 5 6 18 -4 31 18 72 34 62 7 -4 7 0 -2 10 -8 11
-9 17 -2 17 14 0 40 51 33 69 -3 9 0 11 8 6 10 -6 12 -4 7 8 -3 9 -2 19 2 22
5 3 7 15 3 27 -4 16 -2 19 9 13 12 -7 12 -6 1 7 -13 17 -5 29 31 41 9 4 17 12
16 19 0 10 -2 10 -6 1 -2 -7 -9 -13 -15 -13 -6 0 -5 6 2 15 10 12 16 13 28 3
13 -10 14 -10 8 0 -4 7 -2 12 6 12 9 0 9 3 -2 10 -14 9 -12 11 7 9 4 0 12 15
18 33 6 18 16 32 23 31 6 -2 9 4 5 12 -3 9 2 24 11 34 9 10 13 21 10 24 -4 4
1 9 10 13 9 3 16 13 16 21 0 8 5 11 12 7 7 -5 8 -3 3 6 -5 8 1 20 16 32 13 11
17 16 9 12 -13 -7 -13 -5 -1 9 7 9 17 14 22 11 5 -3 9 -1 9 5 0 5 -6 12 -12
14 -7 3 -2 6 11 6 16 1 21 5 17 16 -3 8 0 15 6 15 6 0 8 3 5 7 -11 10 13 32
29 26 9 -3 14 0 12 7 -2 8 7 19 19 25 18 9 20 14 10 24 -7 7 -7 11 -2 10 15
-3 45 12 40 21 -3 4 3 7 12 6 9 0 18 6 20 14 4 13 3 13 -7 0 -10 -13 -11 -13
-7 0 2 8 11 14 20 12 8 -1 19 3 23 9 5 8 2 10 -7 5 -8 -4 -2 4 14 18 15 14 28
29 30 33 1 5 5 7 10 6 4 -2 7 2 7 8 0 5 4 8 9 5 4 -3 17 2 27 10 10 9 12 12 4
8 -9 -4 -12 -3 -7 2 5 5 13 10 18 10 5 1 13 2 18 3 6 0 18 14 27 30 10 17 22
27 27 24 5 -3 3 -9 -4 -14 -8 -5 -9 -9 -3 -9 6 0 18 8 25 17 12 14 12 16 0 8
-10 -5 -12 -4 -7 3 4 7 14 12 22 12 8 0 14 4 14 8 0 4 13 15 28 24 21 13 32
14 40 6 7 -7 10 -3 8 15 -2 18 1 24 11 20 7 -3 20 1 29 8 24 19 43 20 38 1 -3
-10 1 -7 7 6 7 12 20 22 30 22 27 0 50 11 43 21 -3 5 -2 9 3 8 21 -4 54 2 50
9 -3 4 6 15 18 25 16 11 26 13 30 7 5 -8 11 -7 21 1 8 6 17 9 21 6 3 -4 12 1
19 11 7 9 18 17 26 18 7 0 23 2 36 2 14 1 21 6 16 13 -4 8 0 8 15 0 14 -8 21
-8 21 -1 0 5 12 10 26 10 14 0 23 3 21 8 -5 6 11 9 65 12 9 1 22 8 28 15 9 11
17 12 31 4 13 -7 19 -6 19 1 0 6 4 9 9 5 5 -3 12 -1 15 4 3 5 19 7 36 6 16 -1
30 1 30 6 0 5 12 4 26 -1 14 -6 23 -6 20 -1 -3 5 1 11 9 15 8 3 15 1 15 -5 0
-6 7 -3 16 6 12 11 20 13 29 5 9 -8 15 -8 20 0 4 7 12 7 26 0 14 -8 19 -7 19
1 0 9 3 9 14 0 10 -8 16 -9 21 -1 4 7 12 7 24 0 10 -5 21 -6 25 -3 3 3 22 6
41 5 20 -1 34 2 31 7 -3 4 10 7 29 6 19 0 35 3 35 7 0 5 14 1 31 -8 17 -8 28
-11 25 -5z m-1782 -437 c3 -5 -1 -9 -9 -9 -8 0 -12 4 -9 9 3 4 7 8 9 8 2 0 6
-4 9 -8z m-128 -147 c-9 -9 -16 -13 -16 -8 0 5 5 14 12 21 6 6 14 10 16 7 2
-2 -3 -11 -12 -20z m3895 -572 c13 -16 12 -17 -3 -4 -10 7 -18 15 -18 17 0 8
8 3 21 -13z m272 -3448 c-3 -9 -8 -14 -10 -11 -3 3 -2 9 2 15 9 16 15 13 8 -4z"/>
<path d="M3152 6005 c-6 -11 -12 -14 -12 -7 0 10 -3 10 -14 0 -8 -7 -11 -17
-8 -23 3 -5 -2 -4 -12 4 -15 12 -17 12 -14 0 2 -8 -4 -13 -14 -13 -10 1 -15
-3 -12 -8 3 -5 -3 -12 -15 -15 -12 -3 -21 -9 -21 -14 0 -5 -12 -14 -26 -19
-21 -8 -24 -13 -15 -24 9 -11 8 -14 -6 -12 -10 0 -17 -5 -15 -11 1 -7 -3 -13
-9 -13 -6 0 -8 -7 -5 -16 3 -8 2 -12 -4 -9 -6 3 -10 0 -10 -8 0 -14 -32 -28
-70 -33 -26 -2 -60 -16 -60 -23 0 -4 -16 -7 -36 -6 -19 0 -38 -3 -40 -7 -3 -5
-9 -6 -13 -4 -4 3 -26 6 -49 7 -23 2 -42 6 -42 10 0 4 -7 10 -16 13 -15 6 -15
4 -3 -11 13 -17 13 -17 -7 0 -11 9 -24 14 -29 10 -4 -5 -5 -2 -1 5 4 7 1 12
-8 12 -9 0 -16 8 -17 18 0 14 -2 14 -9 -3 -5 -11 -9 -15 -9 -8 -1 7 -13 11
-28 9 -16 -1 -36 1 -45 6 -11 5 -26 5 -36 -1 -13 -7 -22 -7 -29 0 -8 8 -13 8
-17 0 -4 -5 -14 -7 -23 -4 -12 5 -14 3 -8 -7 6 -10 4 -12 -8 -7 -10 4 -17 1
-17 -5 0 -6 -3 -9 -6 -5 -4 3 -15 -4 -26 -16 -11 -12 -17 -16 -13 -10 4 9 1
11 -10 7 -9 -4 -14 -12 -11 -20 3 -8 -2 -11 -15 -9 -11 2 -17 0 -14 -6 4 -5 1
-9 -5 -9 -6 0 -8 -4 -5 -10 3 -5 0 -7 -9 -4 -14 5 -43 -32 -38 -49 1 -4 -5
-10 -13 -13 -12 -5 -13 -9 -4 -21 10 -11 10 -13 0 -11 -7 2 -18 -14 -25 -34
-9 -23 -10 -38 -4 -38 7 0 6 -5 -1 -13 -8 -10 -7 -17 1 -25 9 -9 9 -15 0 -24
-7 -7 -8 -17 -2 -29 7 -12 6 -20 0 -24 -6 -4 -8 -15 -5 -26 4 -11 2 -19 -4
-19 -6 0 -11 -6 -11 -14 0 -7 -8 -20 -17 -27 -17 -13 -17 -13 -3 5 14 18 14
18 -7 6 -12 -8 -20 -17 -17 -21 2 -4 -7 -10 -21 -13 -14 -4 -25 -11 -25 -17 0
-8 6 -7 18 2 14 11 15 11 5 -1 -14 -15 -77 -24 -68 -10 3 5 1 11 -5 15 -5 3
-10 1 -10 -6 0 -8 -4 -8 -15 1 -8 7 -15 10 -15 7 0 -4 -10 -3 -22 2 -13 4 -35
5 -50 0 -16 -4 -30 -3 -34 2 -3 6 -11 6 -17 1 -7 -5 -24 -7 -40 -6 -18 2 -25
-1 -21 -8 5 -7 0 -9 -15 -5 -17 4 -21 2 -17 -9 4 -12 1 -14 -14 -9 -14 4 -20
2 -20 -9 0 -13 -39 -43 -47 -38 -2 1 -6 2 -10 2 -5 0 -1 -5 7 -10 13 -8 12
-10 -3 -10 -10 0 -16 -4 -13 -9 4 -5 0 -12 -6 -14 -10 -4 -9 -8 2 -17 13 -10
13 -11 -2 -6 -10 3 -18 1 -18 -5 0 -6 -4 -7 -10 -4 -5 3 -7 0 -4 -8 3 -8 0
-18 -7 -23 -8 -5 -10 -3 -4 6 5 9 4 11 -4 6 -9 -6 -9 -11 -1 -21 8 -9 6 -14
-5 -19 -8 -3 -15 -14 -15 -25 0 -11 -6 -22 -12 -24 -10 -4 -10 -6 0 -6 10 -1
10 -6 2 -21 -6 -12 -7 -20 -1 -20 6 0 6 -11 1 -30 -5 -16 -5 -30 -1 -30 4 0 6
-13 3 -30 -3 -21 0 -30 9 -30 11 0 11 -2 -1 -10 -12 -8 -12 -10 -1 -10 8 0 11
-7 8 -20 -3 -11 0 -18 7 -17 6 1 10 -4 8 -10 -1 -7 3 -13 10 -13 6 0 8 -3 5
-7 -4 -3 1 -12 11 -19 12 -10 13 -13 3 -14 -8 0 -11 -7 -8 -20 3 -11 1 -20 -4
-20 -5 0 -9 -9 -9 -21 0 -11 -4 -18 -8 -15 -5 3 -9 0 -10 -7 -4 -38 -8 -53
-20 -62 -7 -6 -14 -19 -16 -30 -2 -11 -8 -21 -14 -21 -7 -1 -16 -2 -22 -3 -5
0 -10 -6 -10 -12 0 -5 5 -7 10 -4 6 3 10 1 10 -4 0 -6 -7 -11 -16 -11 -14 0
-14 -3 -4 -15 10 -12 9 -15 -4 -15 -10 0 -14 -4 -11 -10 4 -6 -5 -10 -19 -10
-14 0 -26 -6 -26 -12 0 -9 -4 -8 -10 2 -6 9 -10 11 -10 3 0 -7 -7 -10 -17 -6
-13 5 -15 2 -10 -11 6 -14 3 -17 -9 -12 -12 4 -15 2 -11 -9 4 -8 1 -17 -5 -21
-7 -4 -8 -3 -4 4 4 7 2 12 -3 12 -6 0 -11 -7 -11 -16 0 -8 -4 -13 -9 -9 -5 3
-13 0 -17 -6 -4 -8 -3 -9 4 -5 23 14 12 -10 -13 -28 -14 -11 -25 -29 -25 -42
0 -13 -5 -24 -11 -24 -6 0 -8 -7 -5 -16 3 -8 2 -13 -3 -10 -10 6 -10 -1 -10
-114 0 -47 5 -77 12 -82 9 -5 8 -8 -3 -8 -13 0 -13 -1 0 -10 8 -5 11 -12 8
-16 -4 -3 0 -13 8 -21 8 -8 12 -19 9 -24 -11 -17 6 -31 21 -18 11 9 14 6 15
-17 0 -25 1 -26 9 -9 7 17 9 17 9 3 1 -10 6 -18 12 -18 6 0 9 -7 5 -15 -5 -13
-2 -14 17 -4 12 6 19 8 15 4 -4 -4 0 -14 10 -22 9 -8 11 -12 5 -8 -9 4 -11 1
-7 -9 3 -9 10 -13 15 -10 5 3 9 0 9 -6 0 -6 5 -8 10 -5 5 3 10 1 10 -5 0 -6 5
-8 10 -5 6 3 10 3 10 -2 0 -4 11 -8 25 -8 14 0 25 4 25 8 0 4 8 4 18 -1 9 -5
26 -6 37 -2 11 4 29 4 41 0 11 -5 27 -5 34 0 7 4 19 6 27 3 7 -3 20 0 28 7 13
11 14 10 9 -6 -4 -10 10 -1 30 21 21 23 34 31 29 20 -6 -17 -5 -18 9 -5 9 8
16 17 16 20 -1 18 4 21 19 9 11 -10 14 -10 9 -1 -4 6 -2 12 4 12 6 0 13 -7 16
-15 9 -21 25 -19 17 3 -5 16 -5 16 8 1 19 -23 76 -58 65 -41 -7 11 -4 12 13 3
11 -7 21 -17 22 -24 0 -7 2 -20 4 -29 2 -10 -1 -18 -6 -18 -6 0 -7 -4 -4 -10
3 -5 -1 -10 -10 -10 -9 0 -13 -4 -10 -10 3 -5 1 -10 -5 -10 -6 0 -8 -4 -5 -10
3 -5 1 -10 -5 -10 -6 0 -9 -4 -5 -9 3 -6 -3 -8 -13 -6 -11 2 -19 -3 -19 -10 0
-8 5 -11 11 -8 6 3 2 -3 -9 -14 -11 -11 -23 -19 -27 -16 -4 2 -5 -6 -3 -17 2
-13 -4 -24 -18 -32 -12 -6 -23 -10 -25 -9 -2 2 -6 0 -10 -3 -3 -3 0 -6 7 -6 7
0 9 -5 6 -10 -4 -6 -11 -8 -16 -5 -5 4 -9 1 -9 -5 0 -6 -4 -9 -9 -5 -6 3 -14
-2 -19 -11 -6 -11 -16 -15 -26 -11 -10 4 -15 3 -11 -3 3 -6 0 -10 -8 -10 -8 0
-17 -9 -20 -20 -3 -13 -11 -18 -26 -15 -18 3 -20 1 -11 -15 9 -16 7 -18 -10
-15 -15 3 -24 -3 -30 -21 -6 -14 -14 -22 -20 -19 -5 3 -10 -1 -10 -9 0 -9 -5
-16 -11 -16 -5 0 -7 -5 -3 -12 4 -6 -1 -17 -11 -24 -12 -9 -16 -22 -13 -43 3
-17 2 -31 -2 -31 -3 0 -5 -12 -4 -27 1 -16 3 -28 4 -28 1 0 3 -16 5 -35 5 -57
16 -105 27 -111 6 -4 5 -9 -3 -12 -11 -4 -11 -6 -1 -6 7 -1 10 -6 6 -13 -5 -7
-2 -9 8 -6 11 5 14 0 10 -18 -2 -14 -1 -24 4 -23 5 1 18 1 29 0 17 -1 18 -3 5
-11 -13 -8 -12 -10 3 -10 10 0 16 -4 12 -9 -3 -5 0 -13 6 -17 8 -4 9 -3 5 4
-14 22 6 12 26 -13 23 -29 40 -33 32 -7 -3 9 2 5 10 -10 15 -25 39 -34 91 -37
11 0 29 -2 40 -5 11 -2 26 1 33 7 8 6 16 6 25 -1 6 -5 21 -6 32 -2 11 4 27 5
35 2 12 -5 13 -3 3 9 -10 13 -10 16 2 16 8 0 15 -3 15 -6 0 -3 12 -7 26 -7 14
-1 32 -11 40 -23 9 -12 24 -21 34 -21 10 0 24 -8 29 -17 6 -10 11 -14 11 -10
0 4 6 2 14 -5 8 -7 12 -16 9 -20 -4 -8 21 -12 41 -9 5 1 4 -4 -3 -12 -9 -12
-9 -15 4 -13 9 0 23 -12 33 -29 9 -16 23 -34 30 -38 10 -6 10 -12 2 -22 -8
-10 -8 -15 1 -21 8 -5 10 -3 5 7 -4 8 -1 6 7 -3 8 -10 18 -14 23 -10 4 4 2 -1
-5 -11 -12 -15 -12 -17 4 -11 13 5 16 4 11 -4 -4 -7 -3 -12 1 -12 5 0 14 -10
19 -22 6 -13 9 -18 7 -11 -1 7 3 15 9 19 7 4 8 3 4 -5 -4 -6 0 -14 8 -17 9 -3
13 -10 10 -15 -3 -5 -1 -9 4 -9 5 0 12 -9 15 -20 3 -12 14 -20 26 -20 12 0 21
-4 21 -10 0 -5 6 -7 13 -4 8 3 19 -2 26 -10 9 -10 19 -12 34 -7 12 5 32 5 45
0 15 -6 22 -5 22 3 0 9 3 9 11 1 7 -7 20 -8 33 -3 23 8 30 10 47 10 5 0 7 5 4
10 -4 6 -3 10 2 9 12 -3 46 13 61 28 7 7 20 13 28 13 8 0 14 5 14 11 0 5 5 7
11 3 8 -5 8 -1 0 14 -10 18 -9 20 9 17 11 -2 18 0 15 6 -4 5 1 9 11 9 14 0 14
3 4 16 -8 8 -9 14 -4 13 21 -4 34 2 34 16 0 8 6 15 13 15 9 0 9 2 -1 9 -11 6
-10 10 3 15 10 3 15 12 12 20 -3 8 -1 16 4 18 12 4 18 98 6 98 -4 0 -4 8 2 17
7 13 5 23 -6 35 -12 14 -13 18 -3 18 10 0 9 5 -3 18 -13 15 -14 21 -4 31 9 10
8 11 -7 5 -13 -5 -17 -4 -12 4 4 7 2 12 -4 12 -6 0 -8 5 -5 10 3 6 2 10 -2 10
-5 0 -9 9 -10 20 -1 13 2 18 10 13 8 -4 7 -1 -1 9 -11 14 -10 19 13 34 20 13
23 19 13 25 -11 7 -11 9 0 9 7 0 10 5 6 12 -4 7 -3 8 5 4 7 -5 15 4 22 23 6
17 15 31 21 31 5 0 6 -5 2 -12 -5 -7 -3 -8 5 -4 7 5 10 14 7 22 -3 8 1 14 10
14 11 0 13 6 9 21 -5 15 -4 19 4 15 6 -4 11 0 11 9 0 10 5 13 13 9 9 -6 9 -4
-1 8 -10 13 -10 18 -1 24 8 4 9 3 5 -4 -4 -7 -3 -12 3 -12 5 0 11 10 13 23 2
12 8 21 14 20 6 -1 11 4 11 12 0 8 -5 11 -11 8 -6 -4 -5 1 3 10 7 9 18 14 24
10 6 -3 7 -1 3 6 -9 14 12 43 24 36 5 -3 12 0 16 6 4 8 3 9 -4 5 -7 -4 -12 -2
-12 3 0 6 5 11 10 11 6 0 10 5 10 11 0 6 7 17 15 25 8 8 11 22 8 31 -4 11 -3
14 5 9 7 -4 12 -3 12 2 0 5 14 8 30 7 17 -1 30 2 30 7 0 5 8 4 19 -1 10 -6 21
-7 25 -3 4 3 19 7 34 8 42 2 44 3 36 16 -5 8 -2 9 9 5 10 -3 17 -2 17 4 0 6 5
7 10 4 6 -3 10 -1 10 5 0 6 5 8 10 5 6 -3 10 -1 10 4 0 6 5 10 11 9 6 -2 14 3
17 11 3 9 0 11 -9 6 -8 -5 5 10 29 32 40 39 55 62 30 47 -7 -4 -9 -3 -5 1 7 9
28 15 55 17 6 1 12 5 12 9 0 9 20 7 37 -4 6 -4 14 -3 18 3 4 7 12 7 26 0 14
-8 19 -7 19 1 0 9 3 9 14 0 10 -8 16 -9 21 -1 4 7 12 7 26 0 14 -8 19 -7 19 1
0 9 3 9 14 0 10 -8 16 -9 21 -1 4 7 12 7 26 0 14 -8 19 -7 19 1 0 9 3 9 14 0
10 -8 16 -9 21 -1 6 9 15 7 46 -12 3 -1 14 3 23 11 12 10 20 11 28 3 8 -8 17
-8 31 -1 13 7 17 8 13 1 -3 -6 3 -13 14 -17 11 -3 20 -10 20 -14 0 -5 12 -20
26 -34 16 -16 23 -31 18 -39 -6 -10 -4 -10 9 1 15 12 18 10 26 -10 5 -13 7
-27 5 -31 -2 -3 4 -4 14 -1 10 2 28 -5 41 -16 27 -23 36 -27 25 -10 -3 6 5 3
20 -6 16 -11 26 -13 26 -6 0 8 5 9 19 1 12 -6 22 -6 25 -1 3 5 21 5 41 1 19
-4 35 -4 35 1 0 4 6 6 14 3 8 -3 24 0 36 6 15 8 20 8 16 1 -4 -7 -1 -9 8 -5 8
3 17 12 20 21 5 12 9 13 21 3 10 -9 15 -9 15 -1 0 6 7 11 15 11 8 0 15 8 15
18 0 14 2 15 10 2 7 -11 10 -11 10 -2 0 7 5 10 11 6 7 -4 7 1 -1 16 -8 15 -8
20 -1 16 6 -4 11 -1 11 6 0 9 3 9 10 -2 9 -13 14 -7 11 13 0 4 3 7 7 7 8 0 10
7 14 50 1 11 9 20 16 20 9 0 12 6 8 16 -3 8 1 26 10 39 9 14 11 26 5 29 -6 4
-6 18 -1 35 4 16 6 31 4 34 -2 2 -6 23 -8 46 -3 25 -12 49 -23 57 -10 9 -13
13 -7 10 6 -3 11 1 11 9 0 8 -5 13 -10 12 -6 -1 -14 9 -18 23 -4 14 -8 21 -8
15 -1 -5 -7 -1 -13 9 -8 14 -8 21 -1 23 6 2 9 13 6 23 -3 12 0 20 7 20 7 0 10
8 7 20 -3 13 -1 18 6 13 6 -4 8 0 4 10 -3 9 -2 19 4 22 5 4 7 9 5 13 -2 4 2
16 10 27 8 10 14 14 14 9 0 -6 -6 -16 -12 -24 -11 -12 -10 -12 5 0 10 7 17 20
16 29 -3 30 1 42 10 36 6 -3 8 4 6 15 -2 12 2 23 11 27 12 4 12 8 2 21 -10 12
-10 14 0 8 7 -4 12 -2 12 4 0 7 7 10 18 6 14 -5 14 -4 -2 9 -11 8 -14 15 -8
15 7 0 12 9 12 21 0 11 5 17 10 14 6 -3 10 1 10 11 0 12 6 15 21 11 17 -5 18
-3 7 11 -10 12 -10 14 0 8 7 -4 12 -2 12 4 0 6 5 8 10 5 6 -3 10 -1 10 5 0 7
6 10 14 7 8 -3 17 1 20 9 4 10 2 12 -6 8 -7 -4 -8 -3 -4 5 6 9 11 9 24 -1 14
-12 14 -10 2 12 -12 23 -12 24 3 11 15 -12 17 -11 17 3 0 10 4 15 9 11 6 -3 8
4 6 16 -4 17 -2 19 10 9 8 -7 16 -10 16 -6 1 3 2 12 3 19 1 6 7 11 13 10 7 -2
12 5 12 15 1 32 13 82 21 82 8 0 5 44 -5 59 -3 6 -3 11 2 11 4 0 8 18 8 39 0
22 -3 37 -7 35 -4 -2 -9 0 -13 6 -3 5 0 10 7 10 7 1 2 10 -12 22 -16 14 -19
19 -7 15 16 -6 16 -5 1 18 -9 14 -21 25 -26 25 -6 0 -5 7 2 16 11 12 11 15 -1
12 -8 -2 -13 4 -12 15 1 12 -4 17 -14 13 -10 -4 -13 0 -11 17 2 17 -2 22 -21
23 -13 1 -26 7 -30 13 -5 7 -18 13 -29 14 -12 1 -22 6 -22 11 0 5 -3 7 -6 3
-4 -3 -14 2 -23 11 -9 10 -11 11 -6 3 9 -12 7 -12 -12 0 -12 7 -20 15 -18 18
3 2 -4 11 -16 19 -11 8 -18 20 -15 29 3 8 2 12 -3 9 -5 -3 -15 2 -22 11 -12
14 -12 15 -1 9 11 -7 12 -4 3 12 -6 12 -16 24 -23 28 -6 4 -8 3 -4 -4 3 -6 2
-13 -4 -17 -6 -4 -10 4 -10 19 0 15 -11 33 -26 45 -15 12 -21 21 -13 21 11 0
11 2 -1 9 -8 6 -17 8 -21 6 -11 -7 2 89 14 101 4 4 2 13 -4 20 -7 8 -7 14 1
19 6 4 7 12 1 24 -6 10 -6 23 -1 31 5 8 4 22 -1 32 -7 13 -6 18 2 18 7 0 4 9
-7 22 -12 13 -13 18 -4 13 12 -7 13 -6 3 7 -7 8 -10 18 -6 21 3 4 -1 7 -10 7
-10 0 -17 5 -17 11 0 5 4 7 10 4 6 -3 7 1 4 9 -3 9 -10 13 -15 10 -5 -3 -9 0
-9 5 0 22 -2 26 -17 44 -9 9 -22 17 -30 17 -7 0 -13 6 -13 14 0 8 -7 17 -16
20 -15 6 -15 4 -3 -11 13 -16 12 -17 -4 -4 -10 8 -15 21 -12 30 3 8 3 12 -1 8
-4 -4 -14 -1 -22 6 -13 10 -14 9 -7 -3 5 -8 -9 -2 -31 15 -21 16 -33 21 -25
12 12 -15 12 -17 -3 -11 -9 3 -16 10 -16 14 0 4 -15 4 -34 0 -18 -4 -41 -3
-50 2 -10 6 -16 5 -16 -1 0 -6 -6 -8 -14 -5 -8 3 -17 1 -20 -4 -3 -6 -15 -8
-26 -5 -11 3 -20 1 -20 -5 0 -5 -14 -8 -31 -6 -16 2 -28 0 -25 -5 3 -5 -2 -15
-11 -22 -21 -18 -102 -38 -109 -27 -3 4 -10 6 -15 3 -5 -4 -9 -2 -9 3 0 6 -9
8 -20 5 -11 -3 -20 -1 -20 5 0 6 -9 8 -20 5 -24 -6 -120 16 -120 28 0 5 -5 9
-11 9 -5 0 -7 -4 -4 -10 3 -6 -1 -7 -9 -4 -9 3 -16 9 -16 13 0 3 -18 6 -40 5
-22 0 -38 2 -35 4 3 3 -2 16 -10 29 -9 13 -13 23 -10 23 4 0 -1 7 -9 16 -9 8
-14 19 -11 24 5 9 -33 26 -48 22 -4 -1 -3 7 3 17 10 20 -1 38 -19 27 -4 -3
-17 2 -27 10 -10 9 -12 12 -4 8 8 -4 12 -3 7 2 -4 4 -18 9 -30 9 -12 0 -21 5
-20 12 2 7 -3 10 -11 7 -8 -3 -23 -1 -34 5 -11 6 -22 8 -26 4 -8 -8 -76 -10
-76 -1 0 4 -13 3 -29 -2 -20 -6 -31 -5 -34 3 -2 7 -8 3 -15 -8z m318 -59 c0
-2 -7 -7 -16 -10 -8 -3 -12 -2 -9 4 6 10 25 14 25 6z m-174 -227 c9 -7 10 -18
4 -35 -7 -17 -6 -24 3 -25 9 0 9 -2 0 -6 -7 -2 -13 -11 -13 -19 0 -9 -4 -12
-10 -9 -5 3 -10 2 -10 -4 0 -5 -8 -8 -17 -6 -10 2 -24 4 -31 4 -7 1 -10 6 -7
11 3 6 -1 10 -9 10 -9 0 -16 3 -17 8 0 4 -2 15 -4 25 -2 9 1 17 6 17 5 0 8 6
7 13 -2 6 5 11 15 11 9 -1 17 1 17 5 0 11 52 12 66 0z m1109 -20 c11 -16 1
-19 -13 -3 -7 8 -8 14 -3 14 5 0 13 -5 16 -11z m-2214 -22 c-10 -9 -11 -8 -5
6 3 10 9 15 12 12 3 -3 0 -11 -7 -18z m272 -150 c4 3 16 -2 27 -12 20 -18 21
-18 14 1 -4 10 -4 16 0 12 4 -3 9 -26 11 -50 1 -24 1 -37 -2 -30 -3 6 -9 12
-14 12 -6 0 -7 -5 -4 -10 4 -6 1 -17 -5 -26 -10 -12 -16 -12 -28 -2 -13 11
-14 11 -8 -1 7 -10 3 -12 -15 -6 -30 9 -27 6 -33 38 -2 14 -7 31 -10 36 -3 5
3 11 14 14 11 3 20 13 20 22 0 14 3 15 13 6 8 -6 17 -8 20 -4z m1711 -13 c15
-6 17 -4 11 6 -5 8 -4 11 3 6 6 -4 8 -14 5 -23 -4 -10 -2 -14 5 -9 6 3 13 2
17 -4 3 -5 2 -10 -2 -10 -5 0 -9 -12 -9 -27 1 -17 -4 -27 -11 -25 -7 1 -13 -2
-13 -6 0 -4 -15 -8 -34 -8 -19 0 -32 4 -30 8 3 5 11 5 17 2 7 -4 8 -3 4 2 -5
5 -14 9 -20 9 -7 0 -12 16 -13 38 -1 20 3 37 8 37 5 0 7 4 4 9 -6 9 29 7 58
-5z m-551 -8 c15 0 27 -4 27 -10 0 -6 4 -5 9 2 7 11 10 11 22 0 17 -16 99 -39
99 -28 0 5 9 6 19 3 13 -3 20 -14 20 -31 0 -25 7 -67 11 -67 10 0 3 -48 -7
-52 -7 -3 -11 -9 -8 -13 3 -4 -3 -7 -12 -6 -9 0 -18 -6 -20 -14 -4 -13 -3 -13
7 0 10 13 11 13 7 0 -2 -8 -12 -14 -21 -12 -9 2 -16 -1 -15 -5 3 -20 -2 -24
-17 -13 -8 8 -14 9 -13 4 4 -24 -2 -32 -23 -26 -18 4 -20 2 -14 -14 4 -10 4
-15 0 -11 -4 4 -14 1 -22 -6 -13 -10 -15 -9 -8 3 4 8 0 6 -8 -4 -9 -11 -18
-17 -22 -14 -3 4 -18 3 -34 -2 -24 -7 -29 -4 -39 17 -9 19 -8 23 1 18 7 -4 5
0 -4 8 -10 8 -15 17 -11 20 3 4 1 7 -5 7 -7 0 -12 7 -12 15 0 8 -4 15 -10 15
-5 0 -10 6 -10 14 0 8 -5 16 -11 18 -6 2 -12 18 -14 36 -1 18 -7 38 -13 44 -8
8 -7 15 6 25 9 8 11 12 5 8 -8 -4 -11 -1 -7 9 3 8 14 13 25 11 22 -4 35 10 18
21 -8 5 -9 3 -4 -6 5 -9 4 -11 -4 -6 -6 4 -9 12 -5 17 3 5 10 6 16 3 8 -5 9
-1 5 10 -5 14 -3 15 12 6 15 -7 20 -6 25 6 4 11 11 13 19 7 6 -4 24 -8 40 -7z
m-669 -8 c-3 -4 0 -8 6 -8 6 0 8 -6 4 -12 -4 -7 -4 -10 1 -6 11 10 35 -10 35
-29 0 -17 -101 -119 -113 -115 -5 1 -6 -2 -2 -8 3 -5 -1 -13 -9 -16 -9 -3 -16
-12 -16 -20 0 -8 -5 -13 -12 -11 -7 1 -12 -5 -13 -13 0 -8 -11 -17 -25 -21
-14 -4 -21 -7 -16 -8 12 -1 -112 -121 -127 -122 -7 -1 -16 -1 -20 0 -5 1 -6
-3 -2 -9 6 -9 2 -12 -27 -14 -7 -1 -15 -3 -18 -6 -17 -17 -76 -53 -86 -53 -7
0 -11 -4 -8 -8 2 -4 1 -9 -3 -11 -5 -1 -15 -16 -23 -33 -13 -25 -22 -30 -55
-31 -22 -1 -46 3 -52 9 -7 5 -13 7 -13 4 0 -3 -15 -1 -32 4 -18 6 -42 12 -53
14 -11 2 -29 6 -40 9 -11 2 -27 5 -36 5 -12 1 -17 11 -17 40 -1 43 24 81 52
81 10 0 14 5 11 10 -3 6 1 10 10 10 9 0 13 5 10 10 -3 6 3 10 14 10 12 0 21 4
21 8 0 5 7 9 15 9 8 0 15 -3 15 -7 0 -4 6 -7 13 -8 6 -1 28 -4 47 -7 19 -2 40
-5 45 -6 23 -1 101 9 120 16 61 23 95 42 100 58 4 9 13 17 21 17 8 0 14 4 14
9 0 5 9 12 20 16 11 3 19 9 18 13 -2 9 24 65 34 72 9 7 21 68 19 102 -1 24 4
29 40 38 23 6 43 9 46 7 2 -3 15 0 27 7 26 13 67 16 60 4z m521 -108 c3 -6 -1
-7 -9 -4 -18 7 -21 14 -7 14 6 0 13 -4 16 -10z m1040 -139 c3 -5 2 -12 -3 -15
-5 -3 -9 1 -9 9 0 17 3 19 12 6z m-1280 -20 c6 -1 10 -9 10 -18 0 -10 11 -23
23 -29 14 -7 19 -13 11 -16 -8 -3 -3 -13 15 -31 15 -15 22 -27 17 -27 -6 0 -8
-7 -5 -15 4 -8 10 -12 15 -9 5 3 9 1 9 -5 0 -5 3 -17 7 -27 4 -12 3 -15 -5
-10 -8 5 -10 2 -6 -8 4 -11 0 -16 -12 -16 -14 0 -16 -2 -6 -9 11 -6 9 -9 -7
-14 -12 -3 -23 -18 -29 -38 -5 -19 -14 -33 -21 -32 -6 2 -11 -2 -11 -8 0 -7
-18 -10 -50 -7 -28 1 -50 -1 -50 -6 0 -5 -6 -4 -13 2 -8 7 -18 7 -27 2 -24
-15 -107 50 -93 73 3 5 1 7 -5 3 -6 -3 -13 -2 -17 4 -3 5 -1 10 6 10 8 0 7 5
-2 17 -12 15 -12 16 5 10 17 -7 17 -6 5 10 -9 11 -10 14 -1 9 7 -4 12 -2 12 4
0 6 5 8 11 5 6 -4 9 0 7 10 -2 10 4 20 12 22 13 4 13 3 0 -7 -13 -10 -13 -11
0 -7 8 2 14 12 14 21 -1 10 1 15 4 12 3 -3 12 3 19 14 8 11 19 18 24 14 6 -3
9 2 7 11 -2 10 4 20 12 22 13 4 13 3 0 -7 -13 -10 -13 -11 0 -7 8 2 14 12 14
21 -1 10 1 15 4 12 3 -3 11 3 19 14 8 11 21 20 30 20 13 0 13 3 3 15 -11 14
-10 14 11 7 13 -5 29 -10 34 -11z m950 -81 c4 6 13 7 23 1 9 -4 23 -6 29 -4 7
3 16 -2 19 -11 3 -9 13 -16 21 -16 8 0 11 -4 8 -10 -3 -5 0 -10 7 -10 9 0 9
-3 -2 -10 -13 -8 -12 -10 3 -10 11 0 15 -4 11 -12 -5 -8 -2 -9 11 -4 15 5 16
4 6 -8 -9 -11 -9 -16 0 -22 8 -5 10 -3 4 7 -6 11 -5 11 5 2 10 -9 10 -15 -4
-28 -9 -9 -20 -14 -25 -10 -6 3 -8 -4 -6 -15 2 -11 1 -18 -3 -16 -4 3 -14 -9
-21 -25 -7 -17 -16 -28 -19 -25 -2 3 1 14 8 23 7 10 1 5 -14 -10 -26 -28 -28
-28 -126 -25 -55 2 -100 -1 -100 -5 0 -4 -8 -3 -19 2 -10 6 -21 8 -24 4 -3 -3
-30 -6 -60 -7 -38 -1 -53 3 -50 11 3 6 -5 18 -16 25 -12 7 -21 16 -21 21 0 4
4 6 9 3 5 -4 7 3 4 14 -3 11 -10 17 -16 13 -6 -3 -7 -1 -3 6 6 9 11 9 22 0 12
-10 13 -9 9 4 -4 8 -1 18 6 23 8 5 10 3 4 -6 -5 -9 -4 -11 3 -6 7 4 12 14 12
22 0 12 13 19 23 12 1 -1 12 4 25 11 16 8 22 18 18 29 -5 15 -4 15 8 -1 12
-15 14 -16 20 -2 3 8 9 15 13 14 19 -3 33 2 33 12 0 5 -5 7 -12 3 -7 -4 -8 -3
-4 5 6 9 11 9 24 -1 9 -7 13 -8 10 -3 -10 17 16 31 59 30 24 0 43 4 43 8 0 4
9 3 19 -3 13 -7 22 -7 26 0z m-2302 -119 c4 -1 7 -8 7 -16 0 -8 5 -15 11 -15
5 0 7 6 3 13 -4 6 -3 8 2 4 4 -4 9 -23 9 -42 0 -27 -2 -31 -14 -22 -11 10 -13
8 -7 -11 6 -18 4 -21 -10 -15 -11 4 -15 2 -11 -4 4 -6 -5 -9 -21 -8 -39 3 -42
4 -42 16 0 5 5 7 12 3 7 -4 8 -3 4 4 -4 6 -13 9 -21 6 -14 -6 -16 19 -2 32 4
4 2 13 -5 21 -9 11 -7 15 10 20 12 3 19 9 16 15 -3 5 7 7 23 4 15 -2 31 -5 36
-5z m2907 -5 c0 -3 -4 -8 -10 -11 -5 -3 -10 -1 -10 4 0 6 5 11 10 11 6 0 10
-2 10 -4z m-213 -200 c19 5 24 3 21 -7 -3 -8 -1 -24 3 -36 5 -14 4 -25 -2 -29
-6 -3 -8 -12 -5 -20 6 -17 -10 -28 -20 -13 -4 8 -9 7 -15 -2 -8 -11 -12 -10
-24 5 -15 20 -15 20 -16 0 0 -14 -2 -15 -6 -4 -4 8 -13 21 -22 28 -10 8 -10
11 -2 6 10 -5 12 -3 5 7 -13 21 -14 39 -2 39 6 0 4 7 -3 17 -13 15 -12 15 5 6
15 -8 23 -7 35 4 10 11 16 12 19 4 2 -6 14 -8 29 -5z m-1777 -11 c0 -8 4 -15
9 -15 6 0 9 -9 8 -20 -1 -11 -6 -20 -11 -20 -5 0 -6 -3 -3 -7 10 -9 -23 -43
-42 -43 -9 0 -27 8 -40 17 -15 10 -21 11 -16 3 5 -8 4 -11 -2 -7 -20 13 -25
58 -8 83 12 19 24 24 60 24 33 0 45 -4 45 -15z m782 6 c4 -1 5 -10 3 -21 -2
-11 1 -19 8 -17 7 1 10 -5 8 -13 -2 -8 -4 -20 -5 -27 -1 -7 -6 -16 -11 -20 -4
-4 -5 -1 -1 7 5 9 2 9 -7 -2 -13 -16 -51 -18 -65 -3 -16 16 -8 100 9 89 5 -3
9 0 9 5 0 6 10 9 23 7 12 -3 25 -5 29 -5z m-1450 -106 c5 -6 8 -5 8 3 0 10 5
9 17 -4 9 -9 19 -12 20 -7 4 10 93 -7 93 -18 0 -7 52 -3 78 6 7 3 15 -2 18
-10 4 -8 10 -15 16 -15 5 0 6 4 3 10 -3 6 1 7 9 4 9 -3 16 -10 16 -15 0 -5 6
-9 14 -9 7 0 19 -14 26 -31 7 -17 20 -37 27 -45 31 -31 20 -68 -25 -85 -13 -5
-21 -13 -17 -18 3 -6 -4 -8 -15 -6 -11 2 -18 0 -15 -6 4 -5 -1 -9 -10 -9 -8 0
-18 -7 -21 -15 -4 -8 -12 -15 -20 -15 -8 0 -14 -8 -14 -17 0 -15 -2 -16 -10
-3 -9 14 -15 7 -11 -14 1 -5 -10 -6 -24 -4 -19 4 -23 2 -15 -7 16 -19 -3 -27
-34 -15 -14 5 -26 12 -26 15 0 4 5 3 10 0 6 -3 10 -1 10 4 0 6 -5 11 -11 11
-6 0 -9 7 -5 15 3 8 1 15 -5 15 -6 0 -9 7 -5 15 3 9 -4 21 -19 31 -18 12 -22
20 -16 32 6 11 4 20 -7 30 -10 7 -11 11 -4 7 20 -10 14 13 -8 28 -11 8 -17 16
-14 20 3 3 -8 31 -25 61 -17 31 -26 56 -20 56 6 0 7 5 4 10 -8 13 18 8 27 -5z
m1754 -74 c-3 -4 60 -8 141 -9 80 -1 148 -4 151 -6 2 -3 13 -1 22 4 13 7 20 5
24 -6 4 -9 13 -14 21 -10 8 3 14 0 12 -7 -1 -7 4 -11 11 -9 8 1 11 -2 7 -8 -6
-9 8 -14 28 -11 5 1 6 -3 2 -9 -3 -6 -11 -7 -17 -4 -7 5 -8 2 -4 -5 5 -7 15
-10 23 -6 13 4 14 3 3 -10 -11 -13 -10 -14 3 -10 8 4 18 1 22 -4 3 -6 11 -8
17 -5 7 4 8 2 4 -5 -5 -7 -13 -9 -20 -4 -7 4 -3 0 7 -9 11 -10 16 -18 12 -18
-4 0 -2 -6 4 -14 9 -11 8 -18 -4 -30 -12 -12 -13 -16 -3 -16 8 0 9 -3 3 -8
-16 -11 -39 -56 -25 -47 9 6 9 2 0 -14 -6 -12 -15 -19 -19 -17 -4 3 -8 0 -9
-7 0 -7 -3 -21 -6 -32 -2 -11 -5 -24 -5 -28 -1 -5 -5 -6 -10 -3 -4 3 -7 -6 -5
-19 2 -19 -3 -25 -16 -25 -10 0 -21 -4 -24 -8 -12 -20 -86 10 -86 34 0 6 -8
18 -17 25 -16 12 -17 12 -6 -2 10 -13 10 -16 -2 -16 -8 0 -12 4 -9 8 2 4 -3
14 -11 21 -9 7 -22 18 -29 25 -10 8 -16 9 -24 1 -8 -8 -9 -4 -5 12 4 16 3 21
-5 16 -7 -4 -12 -2 -12 4 0 6 -4 8 -10 5 -5 -3 -10 1 -10 10 0 11 -5 15 -14
12 -11 -4 -13 -1 -9 10 4 11 3 14 -5 9 -8 -4 -16 2 -21 16 -7 17 -10 19 -10 6
-1 -10 -6 -18 -12 -18 -5 0 -7 4 -4 10 3 5 1 19 -5 31 -8 15 -18 19 -33 15
-22 -5 -22 -5 -2 11 11 9 14 13 5 10 -19 -6 -52 11 -45 23 3 5 0 12 -6 16 -8
4 -9 3 -5 -4 4 -7 2 -12 -3 -12 -6 0 -11 5 -11 11 0 5 -4 7 -10 4 -5 -3 -10
-1 -10 4 0 6 6 11 13 12 6 0 3 4 -8 9 -11 5 -14 9 -6 9 11 1 11 4 0 18 -10 11
-10 14 -1 9 7 -4 12 -2 12 4 0 6 4 8 10 5 5 -3 7 0 4 8 -3 8 -1 18 5 21 6 4 8
12 5 19 -3 8 5 13 21 15 14 1 24 -2 21 -7z m-706 -10 c0 6 8 6 18 0 13 -7 23
-6 32 2 10 9 11 9 6 0 -6 -12 5 -18 27 -14 4 0 7 -11 7 -25 0 -14 4 -23 10
-19 6 3 11 0 11 -7 1 -7 2 -20 3 -28 0 -8 -3 -18 -7 -21 -5 -4 -10 -18 -10
-32 -1 -14 -5 -23 -9 -20 -8 4 -12 -12 -9 -36 2 -7 -2 -10 -7 -7 -13 8 -22
-30 -10 -42 6 -6 5 -12 -3 -17 -8 -5 -10 -4 -5 3 4 7 2 12 -3 12 -6 0 -11 -7
-11 -16 0 -9 -5 -12 -12 -8 -7 4 -8 3 -4 -5 9 -14 -3 -53 -14 -46 -5 3 -7 -4
-5 -15 2 -12 -2 -23 -10 -27 -8 -3 -15 -13 -15 -23 0 -30 -15 -32 -43 -6 -14
13 -28 22 -30 20 -2 -3 -2 7 0 21 5 23 -3 31 -30 26 -5 -1 -7 9 -5 21 2 13 -2
22 -8 21 -6 -1 -11 3 -12 10 -2 30 -9 48 -22 60 -12 10 -12 9 -1 -5 19 -25 8
-22 -15 4 -10 12 -13 18 -6 14 21 -12 13 8 -9 22 -17 11 -18 16 -8 28 10 12 9
13 -6 8 -15 -6 -16 -4 -5 16 8 15 8 20 1 16 -6 -4 -11 -3 -11 2 0 5 16 17 36
27 27 13 33 19 24 30 -8 9 -7 13 2 11 7 0 13 2 13 6 0 14 46 40 60 34 8 -3 17
-1 20 3 3 5 21 5 40 1 21 -5 35 -4 35 1z m-1326 -27 c4 -10 2 -13 -7 -9 -6 4
-4 0 5 -8 10 -8 15 -17 11 -20 -3 -4 0 -7 8 -7 11 0 11 -2 -1 -10 -11 -7 -11
-10 -2 -10 7 0 10 -4 7 -10 -3 -5 1 -10 9 -10 9 0 16 -5 16 -11 0 -5 -6 -7
-12 -4 -7 4 -2 -3 11 -14 14 -13 18 -21 10 -21 -11 0 -11 -2 1 -10 8 -5 11
-10 6 -10 -5 0 -3 -7 4 -15 9 -11 10 -15 1 -15 -8 0 -7 -6 3 -16 9 -8 14 -20
11 -25 -4 -5 -2 -9 3 -9 11 0 46 -89 38 -97 -3 -3 0 -13 6 -21 15 -18 19 -42
7 -42 -5 0 -9 -8 -9 -18 0 -13 -8 -17 -35 -18 -24 0 -35 4 -35 14 0 11 -3 12
-13 4 -10 -9 -13 -6 -15 13 -3 48 -5 55 -15 55 -6 0 -5 5 1 13 7 9 4 19 -13
39 -13 15 -26 24 -29 20 -4 -3 -4 2 0 11 4 11 0 25 -10 36 -9 10 -13 20 -10
23 3 3 0 9 -7 14 -7 4 -10 3 -5 -4 3 -6 2 -13 -3 -16 -5 -4 -8 5 -7 18 2 14
-2 24 -7 23 -6 -1 -11 9 -11 23 -1 14 -5 28 -11 32 -6 5 -3 8 7 8 11 0 15 5
12 15 -4 8 -1 15 5 15 6 0 11 9 11 20 0 11 3 19 8 18 7 -3 12 5 12 23 0 5 -5
7 -12 3 -7 -4 -8 -3 -4 5 4 6 11 9 15 7 4 -3 13 -1 21 5 19 11 17 12 24 -7z
m351 -144 c3 -5 1 -10 -4 -10 -6 0 -11 5 -11 10 0 6 2 10 4 10 3 0 8 -4 11
-10z m1719 -26 c3 -8 2 -12 -4 -9 -6 3 -10 10 -10 16 0 14 7 11 14 -7z m-333
-79 c17 -4 26 -11 22 -18 -4 -6 0 -8 10 -4 11 4 14 2 10 -9 -4 -10 0 -12 13
-7 11 4 15 3 10 -5 -3 -6 3 -13 14 -17 11 -3 20 -14 21 -23 0 -14 2 -13 9 3 7
17 9 17 9 3 1 -10 6 -18 12 -18 6 0 9 -6 6 -13 -3 -8 1 -14 9 -14 7 0 11 5 8
11 -3 6 1 2 10 -8 8 -10 13 -23 9 -29 -3 -6 -1 -7 6 -3 6 4 9 12 6 17 -3 5 1
6 9 3 8 -3 12 -12 9 -20 -4 -10 0 -12 13 -7 12 4 15 3 10 -5 -4 -7 -2 -12 4
-12 6 0 8 -5 4 -12 -5 -7 -2 -10 7 -6 15 5 51 -26 42 -36 -4 -3 -1 -6 5 -6 7
0 12 -8 12 -17 0 -15 2 -16 10 -3 7 11 10 12 10 2 0 -8 10 -22 22 -31 12 -10
23 -28 25 -40 2 -18 -1 -22 -19 -20 -13 2 -28 0 -35 -4 -6 -4 -14 -3 -18 2 -3
7 -15 7 -30 1 -15 -6 -27 -6 -30 0 -3 6 -15 6 -30 0 -14 -5 -25 -6 -25 -2 0 4
-11 7 -25 7 -14 0 -25 -4 -25 -8 0 -4 -8 -3 -18 2 -11 6 -24 6 -35 0 -9 -6
-17 -6 -17 -2 0 4 -11 8 -25 8 -14 0 -25 -4 -25 -8 0 -5 -5 -5 -11 -2 -15 10
-69 12 -69 4 0 -5 -15 -2 -32 5 -18 7 -40 11 -48 9 -13 -4 -13 -3 0 6 13 10 8
15 -12 12 -4 0 -4 7 -1 16 4 11 3 14 -5 9 -14 -8 -14 -7 -16 51 -2 33 1 40 11
32 9 -8 11 -6 8 10 -2 12 0 19 6 16 5 -4 9 -1 9 5 0 6 5 8 13 4 7 -5 7 -2 -2
10 -12 15 -12 17 0 14 10 -2 13 5 11 23 -2 16 3 29 11 32 9 3 14 17 12 35 -2
24 1 29 14 24 14 -5 14 -4 2 11 -12 15 -11 17 2 17 11 0 14 5 10 17 -5 13 -2
15 15 11 13 -4 22 -1 23 5 1 7 3 4 6 -5 2 -9 17 -20 34 -23z m-862 -26 c2 -8
6 -7 12 2 6 10 9 8 9 -8 0 -12 7 -29 16 -37 12 -12 12 -16 2 -17 -10 0 -10 -2
0 -6 6 -2 10 -9 6 -14 -3 -5 5 -9 18 -10 13 0 18 -3 12 -5 -7 -3 1 -18 18 -36
19 -20 28 -39 24 -50 -2 -11 2 -22 10 -25 8 -3 13 -12 10 -20 -3 -8 -2 -12 3
-9 5 3 9 -6 9 -19 0 -14 -5 -28 -11 -32 -6 -4 -7 -1 -3 8 4 8 0 5 -8 -5 -9
-11 -16 -17 -16 -13 0 4 -9 3 -20 -3 -16 -9 -22 -8 -26 5 -3 8 -10 15 -16 15
-5 0 -6 -5 -2 -11 3 -6 -7 -4 -22 4 -16 8 -41 12 -56 10 -18 -2 -28 1 -28 9 0
9 -3 9 -10 -2 -6 -9 -10 -10 -10 -3 0 7 -16 15 -36 19 -19 4 -38 13 -41 21 -3
8 -12 12 -20 9 -8 -3 -11 -1 -8 4 4 6 -3 25 -14 43 -17 28 -18 35 -6 57 7 14
19 25 27 25 7 1 12 7 10 14 -1 7 2 9 8 6 7 -4 14 2 17 14 4 17 8 19 19 10 12
-10 13 -8 7 6 -5 14 -3 17 10 12 10 -4 16 -2 14 6 -1 6 8 13 21 15 12 2 22 10
22 17 0 17 43 11 49 -6z m-864 -39 c3 -6 -1 -7 -9 -4 -18 7 -21 14 -7 14 6 0
13 -4 16 -10z m-266 -78 c6 -11 6 -24 0 -35 -6 -9 -7 -23 -3 -30 6 -8 3 -8 -9
1 -14 12 -16 11 -12 -7 3 -14 -1 -18 -11 -14 -8 3 -22 -1 -31 -8 -12 -10 -15
-10 -9 -1 4 7 2 12 -4 12 -6 0 -9 4 -5 9 3 5 0 13 -6 17 -8 4 -9 3 -5 -4 4 -7
3 -12 -2 -12 -17 0 -23 32 -10 48 10 12 10 14 1 8 -9 -5 -11 -2 -7 8 11 29 98
36 113 8z m687 -187 c19 -4 31 -35 13 -35 -4 0 -5 -9 -2 -20 10 -40 -4 -65
-37 -65 -16 0 -30 4 -30 9 0 4 -9 6 -19 3 -15 -3 -18 -1 -14 11 4 9 2 13 -4 9
-17 -11 -10 57 8 73 18 17 52 23 85 15z m-1013 -30 c-3 -9 -8 -14 -10 -11 -3
3 -2 9 2 15 9 16 15 13 8 -4z m1887 -70 c18 11 50 -20 50 -48 0 -16 -4 -26
-10 -22 -5 3 -10 2 -10 -4 0 -5 6 -12 13 -15 6 -4 2 -4 -11 -2 -18 3 -21 2
-12 -8 8 -11 2 -13 -27 -10 -21 1 -39 8 -41 13 -2 6 -9 8 -15 4 -6 -4 -8 0 -4
10 4 10 1 17 -6 17 -8 0 -6 4 3 10 8 5 10 10 4 10 -6 0 -11 7 -11 15 0 12 3
12 16 2 10 -8 13 -9 8 0 -4 7 2 18 15 27 14 10 24 12 26 6 2 -6 8 -8 12 -5z
m1110 -4 c0 -3 11 -19 25 -35 27 -31 31 -41 14 -31 -6 4 -13 -2 -16 -14 -3
-11 -9 -18 -14 -15 -5 3 -9 1 -9 -4 0 -4 -13 -8 -30 -8 -23 0 -27 2 -18 13 8
10 7 13 -4 13 -7 0 -15 11 -16 25 -1 13 -2 28 -3 32 -4 25 4 32 36 31 19 -1
35 -4 35 -7z m25 -1 c-3 -5 -1 -10 6 -10 7 0 10 -3 6 -6 -9 -9 -28 6 -22 17 4
5 8 9 11 9 3 0 2 -4 -1 -10z m-1735 -121 c0 12 71 6 79 -8 4 -5 12 -6 20 -2
17 11 53 2 45 -11 -4 -6 4 -5 16 2 12 7 20 8 16 2 -3 -5 1 -13 10 -16 10 -4
13 -2 8 7 -6 9 -5 9 8 0 8 -7 18 -10 21 -6 4 3 7 1 7 -5 0 -7 5 -12 11 -12 5
0 7 4 4 10 -3 6 1 7 9 4 9 -3 16 -10 16 -15 0 -5 3 -8 8 -8 22 4 29 -3 24 -27
-3 -15 -1 -24 4 -21 5 3 9 -8 9 -24 0 -19 -4 -28 -12 -25 -9 4 -10 -1 -3 -19
6 -16 6 -25 0 -25 -6 0 -10 5 -10 12 0 20 -13 -1 -15 -25 -1 -12 -11 -27 -23
-33 -31 -15 -40 -26 -17 -19 18 6 18 5 2 -5 -9 -6 -23 -8 -30 -4 -9 6 -9 5 -1
-7 9 -11 9 -17 -1 -26 -7 -6 -16 -9 -20 -5 -4 4 -2 -4 5 -17 8 -15 8 -21 1
-17 -6 4 -11 0 -11 -10 0 -10 -3 -14 -7 -11 -11 12 -33 -15 -33 -40 0 -16 -4
-22 -12 -17 -8 5 -9 2 -5 -10 4 -10 1 -19 -8 -22 -8 -4 -15 -13 -15 -21 0 -8
-4 -11 -10 -8 -5 3 -7 0 -4 -9 3 -8 -3 -19 -15 -26 -11 -6 -20 -14 -20 -18 3
-20 -3 -32 -16 -32 -8 0 -12 -6 -9 -14 4 -11 -4 -17 -30 -21 -19 -4 -39 -4
-45 0 -6 3 -11 2 -11 -4 0 -7 -8 -7 -26 -1 -18 7 -23 7 -18 -2 5 -8 0 -9 -14
-6 -12 4 -20 2 -17 -3 3 -4 -6 -11 -20 -15 -14 -3 -25 -10 -25 -15 0 -5 -7 -6
-15 -3 -11 5 -13 2 -9 -9 4 -12 1 -15 -16 -12 -16 3 -19 1 -12 -8 8 -9 3 -12
-19 -12 -16 -1 -29 2 -29 6 0 4 -11 10 -25 13 -14 4 -25 13 -25 21 0 8 -4 15
-10 15 -5 0 -7 -7 -3 -16 5 -14 3 -13 -15 2 -23 19 -29 30 -12 19 6 -3 10 -1
10 4 0 6 -5 11 -12 11 -6 0 -8 3 -5 6 3 4 2 15 -4 25 -7 13 -6 19 1 19 6 0 9
4 6 8 -2 4 -6 38 -8 75 -1 37 -6 67 -11 67 -4 0 -5 5 -2 10 3 6 1 10 -5 10 -6
0 -8 5 -5 10 3 6 -1 10 -9 10 -9 0 -16 5 -16 10 0 6 3 9 8 8 4 -2 7 2 7 7 0 6
-7 10 -15 9 -9 -1 -22 6 -30 14 -13 14 -12 15 2 9 12 -4 15 -2 12 8 -3 8 -13
11 -21 8 -12 -5 -14 -3 -8 7 6 9 4 12 -6 8 -10 -4 -15 1 -15 13 0 11 4 19 9
19 4 0 5 5 1 11 -3 6 -1 15 5 19 7 4 14 16 15 26 2 11 10 18 19 16 11 -2 15 3
12 18 -3 16 -1 19 12 11 11 -6 21 -4 32 6 10 11 16 12 19 4 2 -6 8 -9 13 -5 5
3 9 0 9 -5 0 -6 5 -11 11 -11 5 0 7 5 3 11 -3 6 6 3 22 -7 15 -11 25 -14 21
-8 -4 7 0 14 8 18 8 3 15 0 15 -7 0 -8 3 -9 8 -1 10 16 47 23 65 12 13 -7 15
-5 11 7 -5 11 -2 14 10 9 10 -4 18 0 22 10 3 9 10 16 16 16 5 0 6 -6 2 -12 -5
-9 -2 -8 10 1 13 11 14 16 4 22 -10 7 -9 9 5 9 9 0 16 5 15 12 -2 7 13 20 32
30 23 12 35 25 34 38 -1 16 2 18 17 9 12 -6 19 -6 19 0z m170 -383 c0 -3 -4
-8 -10 -11 -5 -3 -10 -1 -10 4 0 6 5 11 10 11 6 0 10 -2 10 -4z m-860 -98 c0
-5 5 -6 10 -3 6 3 10 3 11 -2 0 -4 3 -21 5 -37 3 -18 0 -32 -8 -37 -7 -5 -13
-16 -13 -25 0 -18 -41 -28 -51 -12 -3 4 -9 6 -13 4 -4 -3 -6 7 -6 22 1 15 -3
33 -8 40 -6 8 -5 12 3 12 7 0 10 7 6 15 -4 10 1 15 14 15 11 0 20 4 20 8 0 5
7 9 15 9 8 0 15 -4 15 -9z m712 -418 c10 -14 18 -20 18 -14 0 5 -5 15 -12 22
-9 9 -9 12 0 12 14 0 27 -45 16 -61 -4 -8 -3 -9 4 -5 19 12 14 -1 -12 -28 -23
-26 -86 -37 -86 -17 0 5 -7 17 -16 25 -11 11 -12 16 -3 16 10 0 10 3 2 11 -9
9 -7 16 6 28 10 10 11 12 1 6 -13 -8 -13 -8 -3 6 7 9 11 18 9 20 -3 2 10 4 27
4 23 0 37 -7 49 -25z"/>
<path d="M3895 5040 c-3 -5 -1 -10 4 -10 6 0 11 5 11 10 0 6 -2 10 -4 10 -3 0
-8 -4 -11 -10z"/>
<path d="M2526 4177 c3 -10 9 -15 12 -12 3 3 0 11 -7 18 -10 9 -11 8 -5 -6z"/>
<path d="M2465 3731 c-3 -5 0 -13 6 -17 7 -4 9 -3 5 4 -3 5 0 13 6 15 9 4 10
6 1 6 -6 1 -14 -3 -18 -8z"/>
<path d="M2300 5975 c-11 -13 -10 -14 4 -9 9 3 16 10 16 15 0 13 -6 11 -20 -6z"/>
<path d="M2009 5823 c-13 -16 -12 -17 4 -4 9 7 17 15 17 17 0 8 -8 3 -21 -13z"/>
<path d="M3960 5759 c0 -5 5 -7 10 -4 6 3 10 8 10 11 0 2 -4 4 -10 4 -5 0 -10
-5 -10 -11z"/>
<path d="M4635 5640 c3 -5 8 -10 11 -10 2 0 4 5 4 10 0 6 -5 10 -11 10 -5 0
-7 -4 -4 -10z"/>
<path d="M1605 5490 c-3 -5 -1 -10 4 -10 6 0 11 5 11 10 0 6 -2 10 -4 10 -3 0
-8 -4 -11 -10z"/>
<path d="M5490 2379 c0 -5 5 -7 10 -4 6 3 10 8 10 11 0 2 -4 4 -10 4 -5 0 -10
-5 -10 -11z"/>
<path d="M1546 2257 c3 -10 9 -15 12 -12 3 3 0 11 -7 18 -10 9 -11 8 -5 -6z"/>
<path d="M5901 2247 c-8 -10 -7 -14 4 -14 8 0 12 4 9 8 -2 4 2 10 8 12 8 4 9
6 2 6 -6 1 -17 -5 -23 -12z"/>
<path d="M5865 2220 c-3 -5 -1 -10 4 -10 6 0 11 5 11 10 0 6 -2 10 -4 10 -3 0
-8 -4 -11 -10z"/>
</g>
</svg>
